<?xml version="1.0" encoding="UTF-8"?>
<svg xmlns="http://www.w3.org/2000/svg" xmlns:xlink="http://www.w3.org/1999/xlink" width="30px" height="30px" viewBox="0 0 30 30" version="1.1">
<g id="surface1">
<path style=" stroke:none;fill-rule:nonzero;fill:rgb(0%,0%,0%);fill-opacity:1;" d="M 13.605469 30.089844 C 12.488281 28.570312 11.960938 26.824219 11.5 25.046875 C 10.550781 21.390625 10.511719 17.667969 10.609375 13.929688 C 10.621094 13.523438 10.765625 13.269531 11.203125 13.175781 C 11.695312 13.070312 12.460938 12.394531 12.726562 11.871094 C 12.132812 11.742188 11.589844 11.890625 11.191406 12.25 C 9.78125 13.511719 8.261719 14.640625 6.757812 15.777344 C 5.976562 16.367188 5.644531 17.035156 5.742188 17.984375 C 5.9375 19.84375 6.097656 21.707031 6.554688 23.527344 C 6.871094 24.78125 7.257812 26.011719 7.726562 27.21875 C 7.769531 27.328125 7.796875 27.441406 7.855469 27.632812 C 7.546875 27.464844 7.445312 27.21875 7.320312 27.007812 C 6.699219 25.953125 6.246094 24.820312 5.789062 23.691406 C 5.078125 21.929688 4.664062 20.09375 4.457031 18.210938 C 4.367188 17.402344 4.304688 16.585938 4.261719 15.769531 C 4.234375 15.296875 4.316406 15.25 4.714844 15.480469 C 5.066406 15.683594 5.316406 15.476562 5.574219 15.316406 C 6.523438 14.734375 7.417969 14.058594 8.28125 13.355469 C 9.140625 12.648438 10.042969 11.988281 10.738281 11.09375 C 10.9375 10.835938 11.257812 10.816406 11.558594 10.890625 C 11.929688 10.988281 12.300781 10.941406 12.671875 10.949219 C 12.808594 10.949219 12.945312 10.941406 12.988281 10.746094 C 12.835938 10.511719 12.5625 10.539062 12.328125 10.476562 C 11.269531 10.195312 10.300781 10.578125 9.324219 10.882812 C 8.5625 11.125 7.78125 11.328125 7.132812 11.839844 C 6.933594 11.996094 6.695312 11.898438 6.5 11.785156 C 6.039062 11.523438 5.679688 11.148438 5.359375 10.734375 C 5.28125 10.636719 5.25 10.539062 5.285156 10.40625 C 5.78125 8.417969 6.179688 6.402344 6.945312 4.492188 C 7.425781 3.300781 8.097656 2.210938 8.878906 1.1875 C 8.945312 1.097656 8.988281 0.972656 9.136719 0.960938 C 9.25 1.085938 9.136719 1.183594 9.09375 1.277344 C 8.566406 2.507812 8.050781 3.742188 7.625 5.011719 C 7.242188 6.148438 7.121094 7.332031 6.996094 8.511719 C 6.953125 8.941406 6.921875 9.371094 6.910156 9.800781 C 6.890625 10.417969 7.023438 10.523438 7.609375 10.371094 C 8.460938 10.148438 9.304688 9.914062 10.148438 9.683594 C 10.507812 9.585938 10.863281 9.480469 11.195312 9.308594 C 11.621094 9.089844 12.027344 9.140625 12.421875 9.386719 C 12.671875 9.542969 12.925781 9.691406 13.242188 9.742188 C 13.082031 9.210938 12.710938 8.929688 12.234375 8.964844 C 11.492188 9.023438 10.753906 9.085938 10.015625 9.148438 C 9.910156 9.15625 9.792969 9.15625 9.707031 9.207031 C 8.988281 9.617188 8.609375 9.03125 8.148438 8.683594 C 7.964844 8.542969 7.988281 8.339844 8.03125 8.148438 C 8.582031 5.734375 9.324219 3.390625 10.535156 1.214844 C 10.617188 1.066406 10.664062 0.878906 10.867188 0.828125 C 10.988281 0.984375 10.871094 1.117188 10.832031 1.25 C 10.179688 3.308594 9.707031 5.40625 9.511719 7.558594 C 9.464844 8.035156 9.558594 8.175781 10.042969 8.238281 C 10.878906 8.34375 11.707031 8.21875 12.535156 8.136719 C 12.914062 8.097656 13.21875 8.0625 13.429688 8.476562 C 13.554688 8.722656 13.78125 8.917969 14.078125 9.035156 C 14.378906 8.8125 14.59375 8.417969 15.039062 8.425781 C 15.148438 8.582031 14.976562 8.695312 15.03125 8.863281 C 15.253906 8.90625 15.3125 9.175781 15.5 9.308594 C 15.765625 9.285156 15.695312 8.804688 16.035156 8.957031 C 16.113281 8.761719 15.910156 8.625 16.015625 8.433594 C 16.441406 8.445312 16.679688 8.753906 16.933594 9.054688 C 17.253906 8.910156 17.503906 8.683594 17.664062 8.410156 C 17.867188 8.054688 18.140625 8.097656 18.464844 8.128906 C 19.308594 8.210938 20.144531 8.316406 21 8.238281 C 21.417969 8.199219 21.515625 8.015625 21.503906 7.636719 C 21.441406 5.933594 21.054688 4.285156 20.621094 2.648438 C 20.460938 2.039062 20.273438 1.433594 20.09375 0.820312 C 20.324219 0.777344 20.347656 0.945312 20.40625 1.046875 C 21.691406 3.300781 22.484375 5.738281 23.027344 8.265625 C 23.070312 8.449219 23.015625 8.582031 22.878906 8.695312 C 22.773438 8.78125 22.667969 8.863281 22.566406 8.949219 C 22.238281 9.238281 21.949219 9.414062 21.429688 9.253906 C 20.570312 8.988281 19.636719 9.054688 18.738281 8.96875 C 18.234375 8.921875 17.976562 9.289062 17.726562 9.726562 C 18.027344 9.753906 18.25 9.640625 18.441406 9.503906 C 18.949219 9.132812 19.429688 9.125 20.019531 9.378906 C 21.15625 9.863281 22.386719 10.070312 23.574219 10.398438 C 23.992188 10.515625 24.179688 10.316406 24.160156 9.867188 C 24.042969 7.261719 23.542969 4.742188 22.417969 2.367188 C 22.214844 1.9375 22.054688 1.488281 21.878906 1.046875 C 21.871094 1.03125 21.898438 0.996094 21.925781 0.933594 C 22.441406 1.453125 22.792969 2.070312 23.167969 2.667969 C 24.023438 4.03125 24.542969 5.53125 24.929688 7.082031 C 25.199219 8.160156 25.464844 9.242188 25.730469 10.320312 C 25.753906 10.40625 25.78125 10.5 25.765625 10.582031 C 25.6875 10.980469 24.628906 11.867188 24.207031 11.898438 C 24.089844 11.910156 23.980469 11.890625 23.871094 11.816406 C 22.679688 11.027344 21.308594 10.71875 19.949219 10.417969 C 19.277344 10.269531 18.574219 10.417969 17.929688 10.707031 C 17.964844 10.949219 18.113281 10.949219 18.242188 10.949219 C 18.671875 10.941406 19.101562 10.992188 19.53125 10.886719 C 19.816406 10.816406 20.109375 10.847656 20.308594 11.097656 C 21.085938 12.070312 22.082031 12.804688 23.046875 13.574219 C 23.742188 14.132812 24.449219 14.679688 25.210938 15.148438 C 25.921875 15.582031 25.921875 15.585938 26.640625 15.339844 C 27.539062 16.742188 25.011719 25.9375 23.273438 27.59375 C 23.15625 27.527344 23.226562 27.445312 23.253906 27.367188 C 23.945312 25.589844 24.511719 23.777344 24.828125 21.894531 C 25.066406 20.476562 25.210938 19.042969 25.320312 17.605469 C 25.367188 16.933594 25.089844 16.417969 24.546875 15.996094 C 23.097656 14.878906 21.65625 13.75 20.246094 12.585938 C 19.847656 12.253906 19.453125 11.972656 18.949219 11.859375 C 18.734375 11.8125 18.519531 11.78125 18.230469 11.878906 C 18.707031 12.429688 19.140625 12.980469 19.816406 13.164062 C 20.324219 13.300781 20.425781 13.59375 20.4375 14.035156 C 20.480469 16.222656 20.550781 18.410156 20.304688 20.589844 C 20.019531 23.074219 19.566406 25.519531 18.664062 27.867188 C 18.371094 28.632812 17.976562 29.347656 17.515625 30.0625 C 17.40625 30.089844 17.308594 30.089844 17.199219 30.066406 C 17.242188 29.941406 17.3125 29.84375 17.359375 29.738281 C 18.003906 28.253906 18.375 26.699219 18.632812 25.113281 C 18.839844 23.835938 18.878906 22.546875 18.941406 21.253906 C 18.996094 20.15625 18.980469 19.058594 18.949219 17.960938 C 18.917969 16.90625 18.742188 15.851562 18.886719 14.804688 C 18.945312 14.382812 18.890625 14.050781 18.605469 13.746094 C 18.324219 13.441406 18.046875 13.132812 17.757812 12.832031 C 17.640625 12.714844 17.503906 12.609375 17.242188 12.574219 C 17.757812 13.242188 17.738281 13.921875 17.640625 14.636719 C 17.449219 16.089844 17.019531 17.472656 16.507812 18.835938 C 16.339844 19.292969 16.191406 19.765625 15.785156 20.183594 C 15.613281 19.753906 15.410156 20.054688 15.21875 20.152344 C 15.050781 20.019531 14.984375 19.851562 14.90625 19.691406 C 14.367188 18.59375 14.019531 17.429688 13.714844 16.246094 C 13.492188 15.382812 13.335938 14.511719 13.347656 13.609375 C 13.355469 13.320312 13.589844 13.082031 13.492188 12.699219 C 12.945312 13.117188 12.554688 13.589844 12.195312 14.097656 C 11.992188 14.378906 12.183594 14.644531 12.183594 14.914062 C 12.191406 15.792969 12.109375 16.664062 12.097656 17.539062 C 12.070312 19.664062 12.023438 21.789062 12.257812 23.90625 C 12.492188 26.042969 12.953125 28.121094 13.839844 30.089844 C 13.773438 30.089844 13.707031 30.089844 13.605469 30.089844 Z M 13.605469 30.089844 "/>
</g>
</svg>
