<?xml version="1.0" encoding="UTF-8"?>
<svg xmlns="http://www.w3.org/2000/svg" xmlns:xlink="http://www.w3.org/1999/xlink" width="40px" height="40px" viewBox="0 0 40 40" version="1.1">
<g id="surface1">
<path style=" stroke:none;fill-rule:nonzero;fill:rgb(79.607844%,4.705882%,0.392157%);fill-opacity:1;" d="M 22.445312 40.054688 C 14.964844 40.054688 7.507812 40.054688 0.0546875 40.054688 C 0.0546875 26.722656 0.0546875 13.386719 0.0546875 0.0546875 C 13.386719 0.0546875 26.722656 0.0546875 40.054688 0.0546875 C 40.054688 13.386719 40.054688 26.722656 40.054688 40.054688 C 34.195312 40.054688 28.332031 40.054688 22.445312 40.054688 M 17.265625 36.710938 C 17.234375 36.671875 17.199219 36.628906 17.148438 36.550781 C 17.140625 36.539062 17.132812 36.527344 17.132812 36.5 C 17.132812 36.488281 17.125 36.480469 17.105469 36.445312 C 17.085938 36.417969 17.066406 36.386719 17.046875 36.332031 C 17.039062 36.316406 17.03125 36.304688 17.007812 36.261719 C 17 36.242188 16.988281 36.222656 16.976562 36.164062 C 16.847656 35.878906 16.714844 35.59375 16.582031 35.277344 C 16.570312 35.261719 16.5625 35.242188 16.550781 35.183594 C 16.453125 34.9375 16.355469 34.691406 16.25 34.410156 C 16.238281 34.371094 16.226562 34.335938 16.210938 34.257812 C 16.039062 33.636719 15.867188 33.015625 15.695312 32.359375 C 15.6875 32.332031 15.683594 32.308594 15.679688 32.242188 C 15.648438 32.027344 15.605469 31.8125 15.589844 31.597656 C 15.546875 31.011719 15.515625 30.425781 15.480469 29.792969 C 15.472656 29.683594 15.464844 29.570312 15.46875 29.414062 C 15.445312 29.191406 15.421875 28.96875 15.398438 28.710938 C 15.394531 28.6875 15.394531 28.667969 15.402344 28.605469 C 15.390625 28.4375 15.382812 28.269531 15.375 28.050781 C 15.367188 27.871094 15.359375 27.6875 15.363281 27.453125 C 15.359375 26.960938 15.355469 26.46875 15.363281 25.925781 C 15.363281 25.761719 15.367188 25.597656 15.382812 25.390625 C 15.414062 24.988281 15.441406 24.582031 15.476562 24.144531 C 15.476562 24.121094 15.476562 24.097656 15.496094 24.035156 C 15.515625 23.847656 15.539062 23.660156 15.574219 23.433594 C 15.574219 23.394531 15.578125 23.351562 15.601562 23.277344 C 15.625 23.125 15.652344 22.972656 15.691406 22.785156 C 15.691406 22.761719 15.691406 22.738281 15.714844 22.679688 C 15.878906 22.207031 16.054688 21.734375 16.203125 21.253906 C 16.234375 21.148438 16.15625 21.011719 16.132812 20.882812 C 16.132812 20.882812 16.125 20.875 16.128906 20.824219 C 16.0625 20.460938 16.128906 20.128906 16.347656 19.824219 C 16.433594 19.707031 16.496094 19.578125 16.582031 19.4375 C 16.582031 19.4375 16.585938 19.417969 16.621094 19.40625 C 16.953125 19.132812 17.273438 18.839844 17.625 18.59375 C 17.863281 18.425781 18.15625 18.363281 18.507812 18.375 C 18.402344 18.605469 18.3125 18.78125 18.242188 18.960938 C 18.109375 19.304688 17.988281 19.652344 17.84375 20.027344 C 17.835938 20.050781 17.824219 20.070312 17.800781 20.109375 C 17.789062 20.125 17.789062 20.140625 17.789062 20.195312 C 17.789062 20.222656 17.785156 20.246094 17.765625 20.3125 C 17.761719 20.441406 17.757812 20.570312 17.742188 20.746094 C 17.746094 20.839844 17.746094 20.933594 17.738281 21.066406 C 17.753906 21.164062 17.769531 21.257812 17.78125 21.390625 C 17.789062 21.414062 17.792969 21.4375 17.789062 21.507812 C 17.929688 22.128906 18.074219 22.746094 18.214844 23.402344 C 18.21875 23.425781 18.226562 23.449219 18.230469 23.515625 C 18.328125 23.8125 18.429688 24.113281 18.53125 24.445312 C 18.539062 24.464844 18.546875 24.484375 18.554688 24.546875 C 18.765625 25.113281 18.980469 25.679688 19.199219 26.285156 C 19.207031 26.308594 19.214844 26.332031 19.222656 26.394531 C 19.351562 26.734375 19.480469 27.078125 19.609375 27.417969 C 19.640625 27.414062 19.675781 27.410156 19.710938 27.40625 C 19.777344 27.273438 19.832031 27.132812 19.917969 27.015625 C 19.976562 26.929688 20.078125 26.871094 20.167969 26.824219 C 20.167969 26.824219 20.183594 26.84375 20.1875 26.882812 C 20.253906 27.0625 20.316406 27.238281 20.378906 27.417969 C 20.40625 27.417969 20.4375 27.421875 20.464844 27.425781 C 20.523438 27.320312 20.578125 27.21875 20.660156 27.089844 C 20.683594 27.039062 20.703125 26.988281 20.753906 26.910156 C 20.789062 26.835938 20.820312 26.757812 20.875 26.65625 C 20.898438 26.601562 20.917969 26.546875 20.96875 26.472656 C 21.011719 26.390625 21.054688 26.3125 21.089844 26.230469 C 21.4375 25.382812 21.8125 24.546875 22.117188 23.6875 C 22.304688 23.148438 22.390625 22.570312 22.535156 21.96875 C 22.539062 21.925781 22.542969 21.886719 22.566406 21.808594 C 22.632812 21.386719 22.722656 20.964844 22.761719 20.539062 C 22.78125 20.34375 22.699219 20.140625 22.664062 19.90625 C 22.652344 19.886719 22.644531 19.863281 22.636719 19.804688 C 22.5 19.507812 22.363281 19.207031 22.226562 18.886719 C 22.226562 18.886719 22.214844 18.863281 22.214844 18.820312 C 22.203125 18.789062 22.191406 18.753906 22.179688 18.722656 C 21.960938 18.214844 21.960938 18.214844 22.542969 18.289062 C 22.582031 18.296875 22.625 18.300781 22.695312 18.328125 C 22.867188 18.40625 23.039062 18.488281 23.234375 18.589844 C 23.269531 18.613281 23.308594 18.632812 23.367188 18.683594 C 23.441406 18.734375 23.515625 18.789062 23.609375 18.871094 C 23.644531 18.902344 23.675781 18.933594 23.71875 19 C 23.871094 19.160156 24.019531 19.316406 24.1875 19.503906 C 24.210938 19.523438 24.230469 19.539062 24.261719 19.597656 C 24.421875 19.910156 24.582031 20.222656 24.738281 20.582031 C 24.738281 20.644531 24.738281 20.703125 24.71875 20.796875 C 24.667969 20.886719 24.601562 20.972656 24.566406 21.070312 C 24.53125 21.164062 24.523438 21.269531 24.503906 21.414062 C 24.515625 21.464844 24.53125 21.519531 24.542969 21.613281 C 24.625 21.957031 24.707031 22.300781 24.792969 22.65625 C 24.792969 22.65625 24.800781 22.660156 24.800781 22.695312 C 24.816406 22.757812 24.832031 22.816406 24.851562 22.914062 C 24.859375 22.9375 24.863281 22.960938 24.867188 23.03125 C 24.898438 23.269531 24.929688 23.507812 24.957031 23.785156 C 24.964844 23.828125 24.96875 23.867188 24.964844 23.960938 C 24.96875 24.761719 24.96875 25.5625 24.964844 26.410156 C 24.964844 26.503906 24.964844 26.597656 24.945312 26.730469 C 24.921875 27.023438 24.894531 27.316406 24.855469 27.65625 C 24.851562 27.730469 24.847656 27.804688 24.824219 27.921875 C 24.804688 28.109375 24.78125 28.296875 24.746094 28.523438 C 24.742188 28.5625 24.742188 28.601562 24.722656 28.679688 C 24.695312 28.886719 24.667969 29.09375 24.632812 29.332031 C 24.632812 29.355469 24.628906 29.378906 24.613281 29.445312 C 24.585938 29.667969 24.5625 29.890625 24.523438 30.15625 C 24.519531 30.210938 24.519531 30.269531 24.503906 30.367188 C 24.410156 30.898438 24.316406 31.429688 24.207031 32.003906 C 23.96875 33.023438 23.773438 34.058594 23.472656 35.0625 C 23.265625 35.738281 23.003906 36.417969 22.488281 36.945312 C 22.304688 37.132812 22.113281 37.316406 21.914062 37.484375 C 21.753906 37.613281 21.835938 37.746094 21.921875 37.832031 C 21.980469 37.890625 22.152344 37.921875 22.210938 37.878906 C 22.515625 37.65625 22.847656 37.445312 23.085938 37.15625 C 23.667969 36.449219 24.148438 35.644531 24.402344 34.769531 C 24.953125 32.90625 25.421875 31.015625 25.902344 29.132812 C 26.089844 28.386719 26.25 27.632812 26.355469 26.871094 C 26.507812 25.789062 26.585938 24.695312 26.714844 23.605469 C 26.863281 22.414062 26.757812 21.242188 26.503906 20.074219 C 26.460938 19.867188 26.386719 19.753906 26.160156 19.863281 C 25.972656 19.953125 25.871094 19.875 25.773438 19.699219 C 25.417969 19.070312 25.046875 18.449219 24.671875 17.828125 C 24.496094 17.539062 24.300781 17.265625 24.074219 16.925781 C 24.710938 16.910156 25.285156 16.792969 25.851562 16.96875 C 26.015625 17.019531 26.1875 17.125 26.300781 17.25 C 26.597656 17.589844 26.859375 17.960938 27.148438 18.304688 C 28.15625 19.519531 29.171875 20.722656 30.171875 21.9375 C 30.605469 22.464844 30.992188 23.023438 31.132812 23.710938 C 31.382812 24.921875 31.421875 26.132812 31.207031 27.355469 C 31.113281 27.898438 31.019531 28.441406 30.933594 28.984375 C 30.664062 30.664062 30.226562 32.292969 29.53125 33.847656 C 29.503906 33.90625 29.535156 33.992188 29.539062 34.0625 C 29.617188 34.054688 29.730469 34.078125 29.773438 34.03125 C 30.023438 33.769531 30.296875 33.519531 30.484375 33.214844 C 31.097656 32.210938 31.472656 31.097656 31.785156 29.976562 C 32.144531 28.679688 32.449219 27.363281 32.707031 26.039062 C 32.933594 24.878906 33.066406 23.695312 32.976562 22.5 C 32.949219 22.15625 32.886719 21.816406 32.839844 21.441406 C 32.714844 21.503906 32.644531 21.542969 32.574219 21.578125 C 32.058594 21.851562 31.816406 21.8125 31.433594 21.375 C 30.714844 20.554688 30 19.722656 29.28125 18.898438 C 28.421875 17.914062 27.5625 16.9375 26.707031 15.953125 C 26.5625 15.785156 26.390625 15.707031 26.164062 15.703125 C 25.582031 15.695312 25.003906 15.675781 24.425781 15.640625 C 24.300781 15.632812 24.183594 15.535156 24.058594 15.476562 C 24.132812 15.351562 24.171875 15.183594 24.277344 15.113281 C 24.691406 14.839844 25.160156 14.753906 25.652344 14.769531 C 26.628906 14.796875 27.605469 14.820312 28.585938 14.84375 C 29.140625 14.859375 29.683594 14.914062 30.203125 15.144531 C 30.546875 15.300781 30.910156 15.417969 31.261719 15.5625 C 31.476562 15.648438 31.621094 15.636719 31.746094 15.402344 C 31.9375 15.046875 32.148438 14.691406 32.398438 14.371094 C 32.675781 14.019531 32.707031 13.664062 32.621094 13.234375 C 32.058594 10.402344 31.398438 7.59375 30.574219 4.824219 C 30.363281 4.117188 30.078125 3.425781 29.804688 2.738281 C 29.671875 2.402344 29.441406 2.125 29.09375 1.894531 C 29.101562 1.996094 29.097656 2.046875 29.109375 2.09375 C 29.261719 2.671875 29.449219 3.242188 29.558594 3.824219 C 29.769531 4.933594 29.996094 6.046875 30.109375 7.171875 C 30.304688 9.089844 30.421875 11.015625 30.570312 12.9375 C 30.636719 13.789062 30.59375 13.832031 29.730469 13.710938 C 28.34375 13.515625 26.960938 13.261719 25.578125 13.019531 C 25.308594 12.972656 25.082031 13.015625 24.859375 13.167969 C 24.636719 13.320312 24.402344 13.460938 24.167969 13.597656 C 24.09375 13.644531 24 13.660156 23.890625 13.695312 C 23.898438 13.609375 23.894531 13.570312 23.90625 13.539062 C 23.953125 13.421875 24.003906 13.308594 24.050781 13.1875 C 24.363281 12.375 24.742188 12.242188 25.546875 12.320312 C 26.214844 12.382812 26.878906 12.464844 27.546875 12.535156 C 27.75 12.554688 27.96875 12.617188 28.164062 12.574219 C 28.867188 12.425781 29.214844 11.929688 29.097656 11.230469 C 28.851562 9.773438 28.628906 8.316406 28.3125 6.875 C 27.953125 5.242188 27.503906 3.628906 27.089844 2.003906 C 27.0625 1.90625 26.996094 1.816406 26.945312 1.722656 C 26.878906 1.800781 26.867188 1.851562 26.867188 1.898438 C 26.980469 3.679688 27.074219 5.460938 27.210938 7.238281 C 27.304688 8.425781 27.449219 9.613281 27.582031 10.800781 C 27.628906 11.234375 27.640625 11.238281 27.199219 11.242188 C 26.402344 11.25 25.605469 11.253906 24.808594 11.25 C 24.007812 11.25 23.472656 11.621094 23.179688 12.363281 C 23.097656 12.574219 22.980469 12.769531 22.878906 12.972656 C 22.851562 12.972656 22.828125 12.972656 22.804688 12.976562 C 22.644531 12.484375 22.371094 12.136719 21.769531 12.132812 C 21.863281 12.335938 21.957031 12.5 22.015625 12.675781 C 22.074219 12.847656 22.097656 13.027344 22.140625 13.207031 C 22.109375 13.214844 22.078125 13.21875 22.046875 13.226562 C 22.023438 13.191406 21.996094 13.15625 21.972656 13.121094 C 21.738281 12.75 21.566406 12.746094 21.3125 13.105469 C 21.058594 13.464844 20.402344 13.402344 20.203125 13 C 20.074219 12.742188 19.910156 12.722656 19.738281 12.949219 C 19.683594 13.027344 19.625 13.101562 19.566406 13.175781 C 19.535156 13.160156 19.503906 13.144531 19.472656 13.128906 C 19.554688 12.949219 19.625 12.765625 19.722656 12.597656 C 19.824219 12.414062 19.949219 12.242188 20.082031 12.039062 C 19.421875 11.960938 19.164062 12.394531 18.90625 12.882812 C 18.722656 12.5625 18.554688 12.304688 18.421875 12.03125 C 18.253906 11.679688 18.046875 11.546875 17.609375 11.566406 C 16.179688 11.625 14.75 11.597656 13.320312 11.609375 C 13.101562 11.613281 12.964844 11.527344 12.917969 11.328125 C 12.855469 11.0625 12.785156 10.796875 12.785156 10.527344 C 12.785156 9.160156 12.792969 7.792969 12.824219 6.425781 C 12.855469 5.023438 12.910156 3.621094 12.953125 2.21875 C 12.953125 2.136719 12.921875 2.050781 12.90625 1.964844 C 12.878906 1.960938 12.851562 1.960938 12.824219 1.957031 C 12.773438 2.089844 12.703125 2.214844 12.671875 2.347656 C 12.382812 3.65625 12.089844 4.960938 11.824219 6.273438 C 11.464844 8.046875 11.128906 9.828125 10.792969 11.605469 C 10.773438 11.699219 10.8125 11.851562 10.882812 11.914062 C 11.21875 12.214844 11.570312 12.503906 11.929688 12.773438 C 12.007812 12.832031 12.171875 12.839844 12.261719 12.796875 C 12.492188 12.6875 12.707031 12.613281 12.960938 12.726562 C 13.039062 12.761719 13.140625 12.746094 13.230469 12.746094 C 14.507812 12.753906 15.78125 12.753906 17.058594 12.765625 C 17.53125 12.769531 17.660156 12.875 17.769531 13.335938 C 17.800781 13.46875 17.816406 13.601562 17.828125 13.746094 C 17.828125 13.746094 17.816406 13.761719 17.777344 13.757812 C 17.722656 13.726562 17.664062 13.703125 17.613281 13.664062 C 17.140625 13.296875 16.617188 13.175781 16.027344 13.320312 C 15.046875 13.5625 14.0625 13.804688 13.070312 14.019531 C 12.1875 14.207031 11.292969 14.363281 10.40625 14.53125 C 10.226562 14.5625 10.121094 14.5 10.121094 14.308594 C 10.117188 13.816406 10.078125 13.328125 10.117188 12.839844 C 10.1875 12.011719 10.308594 11.1875 10.40625 10.359375 C 10.6875 8.058594 10.96875 5.757812 11.242188 3.457031 C 11.261719 3.300781 11.246094 3.140625 11.246094 2.984375 C 11.128906 3.054688 11.054688 3.144531 11.023438 3.246094 C 10.78125 3.957031 10.527344 4.664062 10.320312 5.382812 C 9.929688 6.730469 9.484375 8.070312 9.210938 9.441406 C 8.863281 11.1875 8.664062 12.964844 8.386719 14.722656 C 8.351562 14.960938 8.429688 15.097656 8.613281 15.21875 C 9.0625 15.523438 9.523438 15.816406 9.949219 16.152344 C 10.226562 16.371094 10.453125 16.375 10.761719 16.222656 C 12.171875 15.519531 13.667969 15.066406 15.234375 14.867188 C 16.074219 14.761719 16.902344 14.785156 17.625 15.320312 C 17.722656 15.390625 17.761719 15.53125 17.828125 15.640625 C 17.71875 15.699219 17.617188 15.800781 17.5 15.8125 C 16.933594 15.878906 16.367188 15.914062 15.796875 15.96875 C 15.4375 16.007812 15.070312 16.035156 14.785156 16.296875 C 14.488281 16.566406 14.203125 16.84375 13.914062 17.113281 C 13.148438 17.824219 12.414062 18.5625 11.617188 19.230469 C 10.429688 20.222656 9.203125 21.167969 7.988281 22.128906 C 7.734375 22.328125 7.453125 22.433594 7.136719 22.257812 C 7.101562 22.238281 7.050781 22.246094 6.96875 22.234375 C 6.96875 22.328125 6.957031 22.40625 6.96875 22.484375 C 7.171875 23.824219 7.347656 25.171875 7.59375 26.503906 C 7.878906 28.054688 8.441406 29.519531 9.105469 30.941406 C 9.515625 31.828125 9.945312 32.703125 10.378906 33.578125 C 10.414062 33.652344 10.515625 33.691406 10.585938 33.75 C 10.640625 33.65625 10.703125 33.570312 10.738281 33.472656 C 10.753906 33.421875 10.722656 33.351562 10.699219 33.292969 C 10.496094 32.730469 10.269531 32.175781 10.089844 31.605469 C 9.875 30.90625 9.625 30.207031 9.519531 29.488281 C 9.371094 28.496094 9.339844 27.488281 9.269531 26.488281 C 9.199219 25.523438 9.136719 24.554688 9.089844 23.585938 C 9.070312 23.191406 9.214844 22.855469 9.523438 22.578125 C 10.378906 21.808594 11.21875 21.023438 12.082031 20.246094 C 12.09375 20.238281 12.101562 20.226562 12.128906 20.199219 C 12.179688 20.144531 12.230469 20.09375 12.316406 20.035156 C 12.550781 19.804688 12.789062 19.574219 13.058594 19.324219 C 13.105469 19.273438 13.15625 19.222656 13.238281 19.160156 C 13.382812 19.023438 13.527344 18.882812 13.699219 18.726562 C 13.738281 18.683594 13.773438 18.640625 13.847656 18.585938 C 14.050781 18.386719 14.257812 18.191406 14.492188 17.972656 C 14.605469 17.867188 14.71875 17.757812 14.867188 17.640625 C 15.179688 17.265625 15.605469 17.148438 16.070312 17.109375 C 16.257812 17.09375 16.441406 17.039062 16.667969 17.003906 C 16.710938 17 16.753906 16.992188 16.839844 16.992188 C 16.960938 16.992188 17.121094 16.945312 17.035156 17.1875 C 17.03125 17.195312 17.023438 17.203125 16.988281 17.21875 C 16.941406 17.277344 16.894531 17.335938 16.824219 17.402344 C 16.808594 17.414062 16.796875 17.429688 16.761719 17.460938 C 16.648438 17.601562 16.539062 17.742188 16.398438 17.90625 C 16.367188 17.941406 16.335938 17.976562 16.289062 18.015625 C 16.277344 18.023438 16.273438 18.03125 16.253906 18.058594 C 16.25 18.066406 16.246094 18.074219 16.207031 18.097656 C 15.898438 18.460938 15.585938 18.824219 15.273438 19.1875 C 15.273438 19.1875 15.273438 19.191406 15.238281 19.199219 C 15.03125 19.398438 14.871094 19.683594 14.496094 19.546875 C 14.464844 19.535156 14.339844 19.640625 14.328125 19.710938 C 14.238281 20.113281 14.171875 20.523438 14.085938 20.96875 C 14.085938 21.007812 14.085938 21.050781 14.070312 21.128906 C 14.042969 21.550781 14.015625 21.972656 13.984375 22.445312 C 13.980469 22.609375 13.980469 22.773438 13.964844 22.980469 C 13.9375 23.609375 13.882812 24.242188 13.890625 24.875 C 13.894531 25.730469 13.949219 26.585938 13.980469 27.480469 C 13.984375 27.523438 13.992188 27.5625 13.984375 27.652344 C 14.019531 27.945312 14.054688 28.238281 14.085938 28.570312 C 14.09375 28.628906 14.097656 28.6875 14.097656 28.792969 C 14.128906 29.066406 14.160156 29.34375 14.191406 29.660156 C 14.199219 29.71875 14.207031 29.773438 14.207031 29.878906 C 14.238281 30.152344 14.273438 30.429688 14.304688 30.738281 C 14.308594 30.761719 14.3125 30.785156 14.308594 30.855469 C 14.34375 31.019531 14.378906 31.1875 14.410156 31.390625 C 14.417969 31.417969 14.421875 31.441406 14.425781 31.507812 C 14.488281 31.796875 14.535156 32.089844 14.621094 32.371094 C 14.789062 32.910156 14.976562 33.441406 15.164062 34.007812 C 15.171875 34.03125 15.183594 34.050781 15.191406 34.101562 C 15.21875 34.148438 15.246094 34.191406 15.277344 34.261719 C 15.28125 34.273438 15.285156 34.28125 15.289062 34.324219 C 15.316406 34.371094 15.34375 34.421875 15.375 34.503906 C 15.386719 34.523438 15.394531 34.539062 15.40625 34.597656 C 15.449219 34.679688 15.496094 34.761719 15.546875 34.867188 C 15.546875 34.867188 15.5625 34.886719 15.558594 34.925781 C 15.734375 35.261719 15.90625 35.597656 16.089844 35.957031 C 16.089844 35.957031 16.105469 35.972656 16.109375 36.011719 C 16.191406 36.148438 16.273438 36.28125 16.363281 36.441406 C 16.363281 36.441406 16.375 36.464844 16.382812 36.5 C 16.585938 36.804688 16.792969 37.113281 17.003906 37.433594 C 17.003906 37.433594 17.015625 37.445312 17.027344 37.480469 C 17.125 37.601562 17.226562 37.722656 17.332031 37.863281 C 17.332031 37.863281 17.347656 37.878906 17.355469 37.910156 C 17.410156 37.976562 17.464844 38.042969 17.515625 38.105469 C 17.863281 37.828125 17.878906 37.742188 17.667969 37.460938 C 17.667969 37.460938 17.65625 37.445312 17.648438 37.410156 C 17.523438 37.191406 17.398438 36.972656 17.273438 36.75 C 17.273438 36.75 17.269531 36.746094 17.265625 36.710938 Z M 17.265625 36.710938 "/>
<path style=" stroke:none;fill-rule:nonzero;fill:rgb(2.352941%,0.392157%,0.392157%);fill-opacity:1;" d="M 17.015625 37.445312 C 17.015625 37.445312 17.003906 37.433594 17 37.40625 C 16.789062 37.074219 16.582031 36.769531 16.375 36.464844 C 16.375 36.464844 16.363281 36.441406 16.355469 36.410156 C 16.269531 36.246094 16.1875 36.109375 16.105469 35.972656 C 16.105469 35.972656 16.089844 35.957031 16.082031 35.925781 C 15.90625 35.558594 15.734375 35.222656 15.5625 34.886719 C 15.5625 34.886719 15.546875 34.867188 15.542969 34.835938 C 15.492188 34.722656 15.449219 34.640625 15.402344 34.558594 C 15.394531 34.539062 15.386719 34.523438 15.375 34.46875 C 15.34375 34.386719 15.316406 34.339844 15.289062 34.289062 C 15.285156 34.28125 15.28125 34.273438 15.273438 34.234375 C 15.246094 34.160156 15.21875 34.117188 15.191406 34.070312 C 15.183594 34.050781 15.171875 34.03125 15.164062 33.96875 C 14.96875 33.242188 14.773438 32.550781 14.578125 31.859375 C 14.539062 31.726562 14.480469 31.597656 14.429688 31.464844 C 14.421875 31.441406 14.417969 31.417969 14.417969 31.355469 C 14.390625 31.148438 14.355469 30.980469 14.316406 30.808594 C 14.3125 30.785156 14.308594 30.761719 14.3125 30.703125 C 14.285156 30.386719 14.25 30.109375 14.214844 29.832031 C 14.207031 29.773438 14.199219 29.71875 14.199219 29.617188 C 14.175781 29.300781 14.140625 29.023438 14.105469 28.746094 C 14.097656 28.6875 14.09375 28.628906 14.09375 28.53125 C 14.070312 28.195312 14.03125 27.898438 13.996094 27.605469 C 13.992188 27.5625 13.984375 27.523438 13.988281 27.441406 C 14.003906 27.246094 14.011719 27.09375 14.011719 26.941406 C 14.015625 25.957031 14.015625 24.972656 14.011719 23.988281 C 14.007812 23.636719 13.988281 23.289062 13.976562 22.9375 C 13.980469 22.773438 13.980469 22.609375 14 22.40625 C 14.039062 21.941406 14.0625 21.515625 14.085938 21.089844 C 14.085938 21.050781 14.085938 21.007812 14.105469 20.933594 C 14.207031 20.5625 14.292969 20.222656 14.375 19.882812 C 14.410156 19.738281 14.464844 19.644531 14.644531 19.652344 C 14.980469 19.664062 15.144531 19.535156 15.273438 19.191406 C 15.273438 19.191406 15.273438 19.1875 15.292969 19.183594 C 15.621094 18.8125 15.933594 18.449219 16.242188 18.082031 C 16.246094 18.074219 16.25 18.066406 16.273438 18.050781 C 16.296875 18.03125 16.304688 18.023438 16.304688 18.015625 C 16.335938 17.976562 16.367188 17.941406 16.429688 17.886719 C 16.570312 17.730469 16.683594 17.589844 16.792969 17.445312 C 16.796875 17.429688 16.808594 17.414062 16.851562 17.390625 C 16.925781 17.324219 16.972656 17.265625 17.019531 17.210938 C 17.023438 17.203125 17.03125 17.195312 17.0625 17.171875 C 17.132812 17.09375 17.171875 17.023438 17.210938 16.957031 C 17.136719 16.9375 17.0625 16.902344 16.988281 16.910156 C 16.921875 16.914062 16.859375 16.957031 16.792969 16.988281 C 16.753906 16.992188 16.710938 17 16.628906 16.996094 C 16.152344 17.058594 15.703125 17.097656 15.28125 17.21875 C 15.105469 17.269531 14.980469 17.5 14.832031 17.648438 C 14.71875 17.757812 14.605469 17.867188 14.460938 17.988281 C 14.222656 18.203125 14.015625 18.402344 13.8125 18.601562 C 13.773438 18.640625 13.738281 18.683594 13.667969 18.738281 C 13.492188 18.890625 13.347656 19.03125 13.203125 19.171875 C 13.15625 19.222656 13.105469 19.273438 13.023438 19.335938 C 12.753906 19.578125 12.515625 19.8125 12.28125 20.042969 C 12.230469 20.09375 12.179688 20.144531 12.105469 20.210938 C 12.074219 20.226562 12.066406 20.234375 12.066406 20.246094 C 11.21875 21.023438 10.378906 21.808594 9.523438 22.578125 C 9.214844 22.855469 9.070312 23.191406 9.089844 23.585938 C 9.136719 24.554688 9.199219 25.523438 9.269531 26.488281 C 9.339844 27.488281 9.371094 28.496094 9.519531 29.488281 C 9.625 30.207031 9.875 30.90625 10.089844 31.605469 C 10.269531 32.175781 10.496094 32.730469 10.699219 33.292969 C 10.722656 33.351562 10.753906 33.421875 10.738281 33.472656 C 10.703125 33.570312 10.640625 33.65625 10.585938 33.75 C 10.515625 33.691406 10.414062 33.652344 10.378906 33.578125 C 9.945312 32.703125 9.515625 31.828125 9.105469 30.941406 C 8.441406 29.519531 7.878906 28.054688 7.59375 26.503906 C 7.347656 25.171875 7.171875 23.824219 6.96875 22.484375 C 6.957031 22.40625 6.96875 22.328125 6.96875 22.234375 C 7.050781 22.246094 7.101562 22.238281 7.136719 22.257812 C 7.453125 22.433594 7.734375 22.328125 7.988281 22.128906 C 9.203125 21.167969 10.429688 20.222656 11.617188 19.230469 C 12.414062 18.5625 13.148438 17.824219 13.914062 17.113281 C 14.203125 16.84375 14.488281 16.566406 14.785156 16.296875 C 15.070312 16.035156 15.4375 16.007812 15.796875 15.96875 C 16.367188 15.914062 16.933594 15.878906 17.5 15.8125 C 17.617188 15.800781 17.71875 15.699219 17.828125 15.640625 C 17.761719 15.53125 17.722656 15.390625 17.625 15.320312 C 16.902344 14.785156 16.074219 14.761719 15.234375 14.867188 C 13.667969 15.066406 12.171875 15.519531 10.761719 16.222656 C 10.453125 16.375 10.226562 16.371094 9.949219 16.152344 C 9.523438 15.816406 9.0625 15.523438 8.613281 15.21875 C 8.429688 15.097656 8.351562 14.960938 8.386719 14.722656 C 8.664062 12.964844 8.863281 11.1875 9.210938 9.441406 C 9.484375 8.070312 9.929688 6.730469 10.320312 5.382812 C 10.527344 4.664062 10.78125 3.957031 11.023438 3.246094 C 11.054688 3.144531 11.128906 3.054688 11.246094 2.984375 C 11.246094 3.140625 11.261719 3.300781 11.242188 3.457031 C 10.96875 5.757812 10.6875 8.058594 10.40625 10.359375 C 10.308594 11.1875 10.1875 12.011719 10.117188 12.839844 C 10.078125 13.328125 10.117188 13.816406 10.121094 14.308594 C 10.121094 14.5 10.226562 14.5625 10.40625 14.53125 C 11.292969 14.363281 12.1875 14.207031 13.070312 14.019531 C 14.0625 13.804688 15.046875 13.5625 16.027344 13.320312 C 16.617188 13.175781 17.140625 13.296875 17.613281 13.664062 C 17.664062 13.703125 17.722656 13.726562 17.800781 13.765625 C 17.832031 13.777344 17.839844 13.777344 17.847656 13.777344 C 17.847656 13.761719 17.84375 13.75 17.839844 13.734375 C 17.816406 13.601562 17.800781 13.46875 17.769531 13.335938 C 17.660156 12.875 17.53125 12.769531 17.058594 12.765625 C 15.78125 12.753906 14.507812 12.753906 13.230469 12.746094 C 13.140625 12.746094 13.039062 12.761719 12.960938 12.726562 C 12.707031 12.613281 12.492188 12.6875 12.261719 12.796875 C 12.171875 12.839844 12.007812 12.832031 11.929688 12.773438 C 11.570312 12.503906 11.21875 12.214844 10.882812 11.914062 C 10.8125 11.851562 10.773438 11.699219 10.792969 11.605469 C 11.128906 9.828125 11.464844 8.046875 11.824219 6.273438 C 12.089844 4.960938 12.382812 3.65625 12.671875 2.347656 C 12.703125 2.214844 12.773438 2.089844 12.824219 1.957031 C 12.851562 1.960938 12.878906 1.960938 12.90625 1.964844 C 12.921875 2.050781 12.953125 2.136719 12.953125 2.21875 C 12.910156 3.621094 12.855469 5.023438 12.824219 6.425781 C 12.792969 7.792969 12.785156 9.160156 12.785156 10.527344 C 12.785156 10.796875 12.855469 11.0625 12.917969 11.328125 C 12.964844 11.527344 13.101562 11.613281 13.320312 11.609375 C 14.75 11.597656 16.179688 11.625 17.609375 11.566406 C 18.046875 11.546875 18.253906 11.679688 18.421875 12.03125 C 18.554688 12.304688 18.722656 12.5625 18.90625 12.882812 C 19.164062 12.394531 19.421875 11.960938 20.082031 12.039062 C 19.949219 12.242188 19.824219 12.414062 19.722656 12.597656 C 19.625 12.765625 19.554688 12.949219 19.472656 13.128906 C 19.503906 13.144531 19.535156 13.160156 19.566406 13.175781 C 19.625 13.101562 19.683594 13.027344 19.738281 12.949219 C 19.910156 12.722656 20.074219 12.742188 20.203125 13 C 20.402344 13.402344 21.058594 13.464844 21.3125 13.105469 C 21.566406 12.746094 21.738281 12.75 21.972656 13.121094 C 21.996094 13.15625 22.023438 13.191406 22.046875 13.226562 C 22.078125 13.21875 22.109375 13.214844 22.140625 13.207031 C 22.097656 13.027344 22.074219 12.847656 22.015625 12.675781 C 21.957031 12.5 21.863281 12.335938 21.769531 12.132812 C 22.371094 12.136719 22.644531 12.484375 22.804688 12.976562 C 22.828125 12.972656 22.851562 12.972656 22.878906 12.972656 C 22.980469 12.769531 23.097656 12.574219 23.179688 12.363281 C 23.472656 11.621094 24.007812 11.25 24.808594 11.25 C 25.605469 11.253906 26.402344 11.25 27.199219 11.242188 C 27.640625 11.238281 27.628906 11.234375 27.582031 10.800781 C 27.449219 9.613281 27.304688 8.425781 27.210938 7.238281 C 27.074219 5.460938 26.980469 3.679688 26.867188 1.898438 C 26.867188 1.851562 26.878906 1.800781 26.945312 1.722656 C 26.996094 1.816406 27.0625 1.90625 27.089844 2.003906 C 27.503906 3.628906 27.953125 5.242188 28.3125 6.875 C 28.628906 8.316406 28.851562 9.773438 29.097656 11.230469 C 29.214844 11.929688 28.867188 12.425781 28.164062 12.574219 C 27.96875 12.617188 27.75 12.554688 27.546875 12.535156 C 26.878906 12.464844 26.214844 12.382812 25.546875 12.320312 C 24.742188 12.242188 24.363281 12.375 24.050781 13.1875 C 24.003906 13.308594 23.953125 13.421875 23.90625 13.539062 C 23.894531 13.570312 23.898438 13.609375 23.890625 13.695312 C 24 13.660156 24.09375 13.644531 24.167969 13.597656 C 24.402344 13.460938 24.636719 13.320312 24.859375 13.167969 C 25.082031 13.015625 25.308594 12.972656 25.578125 13.019531 C 26.960938 13.261719 28.34375 13.515625 29.730469 13.710938 C 30.59375 13.832031 30.636719 13.789062 30.570312 12.9375 C 30.421875 11.015625 30.304688 9.089844 30.109375 7.171875 C 29.996094 6.046875 29.769531 4.933594 29.558594 3.824219 C 29.449219 3.242188 29.261719 2.671875 29.109375 2.09375 C 29.097656 2.046875 29.101562 1.996094 29.09375 1.894531 C 29.441406 2.125 29.671875 2.402344 29.804688 2.738281 C 30.078125 3.425781 30.363281 4.117188 30.574219 4.824219 C 31.398438 7.59375 32.058594 10.402344 32.621094 13.234375 C 32.707031 13.664062 32.675781 14.019531 32.398438 14.371094 C 32.148438 14.691406 31.9375 15.046875 31.746094 15.402344 C 31.621094 15.636719 31.476562 15.648438 31.261719 15.5625 C 30.910156 15.417969 30.546875 15.300781 30.203125 15.144531 C 29.683594 14.914062 29.140625 14.859375 28.585938 14.84375 C 27.605469 14.820312 26.628906 14.796875 25.652344 14.769531 C 25.160156 14.753906 24.691406 14.839844 24.277344 15.113281 C 24.171875 15.183594 24.132812 15.351562 24.058594 15.476562 C 24.183594 15.535156 24.300781 15.632812 24.425781 15.640625 C 25.003906 15.675781 25.582031 15.695312 26.164062 15.703125 C 26.390625 15.707031 26.5625 15.785156 26.707031 15.953125 C 27.5625 16.9375 28.421875 17.914062 29.28125 18.898438 C 30 19.722656 30.714844 20.554688 31.433594 21.375 C 31.816406 21.8125 32.058594 21.851562 32.574219 21.578125 C 32.644531 21.542969 32.714844 21.503906 32.839844 21.441406 C 32.886719 21.816406 32.949219 22.15625 32.976562 22.5 C 33.066406 23.695312 32.933594 24.878906 32.707031 26.039062 C 32.449219 27.363281 32.144531 28.679688 31.785156 29.976562 C 31.472656 31.097656 31.097656 32.210938 30.484375 33.214844 C 30.296875 33.519531 30.023438 33.769531 29.773438 34.03125 C 29.730469 34.078125 29.617188 34.054688 29.539062 34.0625 C 29.535156 33.992188 29.503906 33.90625 29.53125 33.847656 C 30.226562 32.292969 30.664062 30.664062 30.933594 28.984375 C 31.019531 28.441406 31.113281 27.898438 31.207031 27.355469 C 31.421875 26.132812 31.382812 24.921875 31.132812 23.710938 C 30.992188 23.023438 30.605469 22.464844 30.171875 21.9375 C 29.171875 20.722656 28.15625 19.519531 27.148438 18.304688 C 26.859375 17.960938 26.597656 17.589844 26.300781 17.25 C 26.1875 17.125 26.015625 17.019531 25.851562 16.96875 C 25.285156 16.792969 24.710938 16.910156 24.074219 16.925781 C 24.300781 17.265625 24.496094 17.539062 24.671875 17.828125 C 25.046875 18.449219 25.417969 19.070312 25.773438 19.699219 C 25.871094 19.875 25.972656 19.953125 26.160156 19.863281 C 26.386719 19.753906 26.460938 19.867188 26.503906 20.074219 C 26.757812 21.242188 26.863281 22.414062 26.714844 23.605469 C 26.585938 24.695312 26.507812 25.789062 26.355469 26.871094 C 26.25 27.632812 26.089844 28.386719 25.902344 29.132812 C 25.421875 31.015625 24.953125 32.90625 24.402344 34.769531 C 24.148438 35.644531 23.667969 36.449219 23.085938 37.15625 C 22.847656 37.445312 22.515625 37.65625 22.210938 37.878906 C 22.152344 37.921875 21.980469 37.890625 21.921875 37.832031 C 21.835938 37.746094 21.753906 37.613281 21.914062 37.484375 C 22.113281 37.316406 22.304688 37.132812 22.488281 36.945312 C 23.003906 36.417969 23.265625 35.738281 23.472656 35.0625 C 23.773438 34.058594 23.96875 33.023438 24.226562 31.96875 C 24.304688 31.746094 24.386719 31.5625 24.414062 31.371094 C 24.464844 31.023438 24.484375 30.675781 24.515625 30.328125 C 24.519531 30.269531 24.519531 30.210938 24.542969 30.121094 C 24.582031 29.859375 24.605469 29.632812 24.628906 29.40625 C 24.628906 29.378906 24.632812 29.355469 24.648438 29.300781 C 24.691406 29.0625 24.714844 28.851562 24.738281 28.644531 C 24.742188 28.601562 24.742188 28.5625 24.765625 28.488281 C 24.800781 28.265625 24.820312 28.074219 24.839844 27.882812 C 24.847656 27.804688 24.851562 27.730469 24.875 27.617188 C 24.917969 27.285156 24.941406 26.988281 24.960938 26.691406 C 24.964844 26.597656 24.964844 26.503906 24.980469 26.371094 C 25.011719 26.28125 25.039062 26.230469 25.039062 26.179688 C 25.046875 25.496094 25.050781 24.816406 25.046875 24.132812 C 25.046875 24.058594 25 23.984375 24.972656 23.910156 C 24.96875 23.867188 24.964844 23.828125 24.964844 23.746094 C 24.941406 23.464844 24.90625 23.226562 24.871094 22.984375 C 24.863281 22.960938 24.859375 22.9375 24.855469 22.882812 C 24.839844 22.785156 24.820312 22.722656 24.800781 22.660156 C 24.800781 22.660156 24.792969 22.65625 24.792969 22.628906 C 24.710938 22.257812 24.628906 21.914062 24.542969 21.570312 C 24.53125 21.519531 24.515625 21.464844 24.511719 21.375 C 24.59375 21.144531 24.664062 20.953125 24.738281 20.765625 C 24.738281 20.703125 24.738281 20.644531 24.746094 20.542969 C 24.667969 20.148438 24.570312 19.796875 24.253906 19.558594 C 24.230469 19.539062 24.210938 19.523438 24.175781 19.472656 C 24.015625 19.28125 23.859375 19.121094 23.707031 18.964844 C 23.675781 18.933594 23.644531 18.902344 23.59375 18.839844 C 23.5 18.757812 23.425781 18.703125 23.347656 18.652344 C 23.308594 18.632812 23.269531 18.613281 23.210938 18.5625 C 23.015625 18.460938 22.839844 18.382812 22.664062 18.304688 C 22.625 18.300781 22.582031 18.296875 22.511719 18.269531 C 22.457031 18.234375 22.433594 18.210938 22.410156 18.210938 C 22.265625 18.207031 22.121094 18.203125 21.972656 18.203125 C 21.996094 18.332031 22.007812 18.46875 22.050781 18.597656 C 22.082031 18.691406 22.15625 18.773438 22.214844 18.863281 C 22.214844 18.863281 22.226562 18.886719 22.230469 18.917969 C 22.367188 19.25 22.503906 19.546875 22.636719 19.84375 C 22.644531 19.863281 22.652344 19.886719 22.660156 19.949219 C 22.621094 20.503906 22.578125 21.015625 22.542969 21.527344 C 22.535156 21.632812 22.542969 21.738281 22.542969 21.84375 C 22.542969 21.886719 22.539062 21.925781 22.515625 22 C 22.457031 22.152344 22.414062 22.269531 22.382812 22.390625 C 22.257812 22.851562 22.160156 23.324219 22 23.773438 C 21.796875 24.351562 21.542969 24.910156 21.316406 25.480469 C 21.183594 25.816406 21.066406 26.15625 20.941406 26.496094 C 20.917969 26.546875 20.898438 26.601562 20.847656 26.679688 C 20.789062 26.777344 20.757812 26.855469 20.726562 26.933594 C 20.703125 26.988281 20.683594 27.039062 20.632812 27.109375 C 20.550781 27.164062 20.496094 27.195312 20.449219 27.222656 C 20.351562 27.082031 20.265625 26.960938 20.183594 26.84375 C 20.183594 26.84375 20.167969 26.824219 20.15625 26.796875 C 19.914062 26.65625 19.925781 26.886719 19.84375 26.984375 C 19.789062 27.050781 19.730469 27.109375 19.671875 27.175781 C 19.617188 27.101562 19.550781 27.03125 19.507812 26.953125 C 19.410156 26.757812 19.320312 26.554688 19.222656 26.355469 C 19.214844 26.332031 19.207031 26.308594 19.199219 26.25 C 19.054688 25.785156 18.90625 25.355469 18.753906 24.929688 C 18.699219 24.785156 18.621094 24.648438 18.554688 24.503906 C 18.546875 24.484375 18.539062 24.464844 18.53125 24.40625 C 18.429688 24.070312 18.332031 23.769531 18.230469 23.472656 C 18.226562 23.449219 18.21875 23.425781 18.222656 23.367188 C 18.144531 22.929688 18.070312 22.527344 17.980469 22.128906 C 17.929688 21.902344 17.859375 21.683594 17.796875 21.460938 C 17.792969 21.4375 17.789062 21.414062 17.789062 21.355469 C 17.78125 21.222656 17.765625 21.125 17.75 21.027344 C 17.746094 20.933594 17.746094 20.839844 17.753906 20.707031 C 17.773438 20.539062 17.777344 20.40625 17.785156 20.273438 C 17.785156 20.246094 17.789062 20.222656 17.800781 20.164062 C 17.816406 20.121094 17.820312 20.109375 17.816406 20.09375 C 17.824219 20.070312 17.835938 20.050781 17.863281 20 C 18.097656 19.503906 18.308594 19.035156 18.515625 18.5625 C 18.546875 18.496094 18.582031 18.367188 18.558594 18.347656 C 18.492188 18.304688 18.382812 18.265625 18.3125 18.292969 C 17.945312 18.429688 17.558594 18.546875 17.230469 18.753906 C 16.976562 18.910156 16.796875 19.191406 16.585938 19.417969 C 16.585938 19.417969 16.582031 19.4375 16.558594 19.453125 C 16.375 19.75 16.179688 20.015625 16.066406 20.316406 C 16.011719 20.476562 16.101562 20.6875 16.125 20.875 C 16.125 20.875 16.132812 20.882812 16.132812 20.910156 C 16.042969 21.277344 15.953125 21.621094 15.871094 21.964844 C 15.808594 22.214844 15.75 22.464844 15.691406 22.714844 C 15.691406 22.738281 15.691406 22.761719 15.671875 22.816406 C 15.628906 23 15.605469 23.15625 15.582031 23.3125 C 15.578125 23.351562 15.574219 23.394531 15.554688 23.46875 C 15.519531 23.691406 15.5 23.882812 15.476562 24.074219 C 15.476562 24.097656 15.476562 24.121094 15.460938 24.179688 C 15.417969 24.617188 15.394531 25.023438 15.371094 25.433594 C 15.367188 25.597656 15.363281 25.761719 15.34375 25.964844 C 15.3125 26.332031 15.28125 26.660156 15.28125 26.988281 C 15.28125 27.160156 15.328125 27.332031 15.351562 27.503906 C 15.359375 27.6875 15.367188 27.871094 15.363281 28.09375 C 15.367188 28.308594 15.378906 28.476562 15.390625 28.644531 C 15.394531 28.667969 15.394531 28.6875 15.386719 28.746094 C 15.402344 29.007812 15.429688 29.234375 15.457031 29.460938 C 15.464844 29.570312 15.472656 29.683594 15.472656 29.835938 C 15.492188 30.585938 15.515625 31.289062 15.558594 31.992188 C 15.5625 32.089844 15.636719 32.1875 15.675781 32.285156 C 15.683594 32.308594 15.6875 32.332031 15.6875 32.394531 C 15.726562 32.675781 15.753906 32.925781 15.824219 33.164062 C 15.9375 33.546875 16.082031 33.921875 16.210938 34.300781 C 16.226562 34.335938 16.238281 34.371094 16.253906 34.449219 C 16.355469 34.734375 16.453125 34.980469 16.554688 35.222656 C 16.5625 35.242188 16.570312 35.261719 16.582031 35.316406 C 16.714844 35.636719 16.847656 35.917969 16.980469 36.203125 C 16.988281 36.222656 17 36.242188 17.015625 36.292969 C 17.023438 36.335938 17.035156 36.347656 17.046875 36.359375 C 17.066406 36.386719 17.085938 36.417969 17.109375 36.46875 C 17.113281 36.492188 17.125 36.515625 17.125 36.515625 C 17.132812 36.527344 17.140625 36.539062 17.160156 36.585938 C 17.203125 36.660156 17.234375 36.703125 17.269531 36.746094 C 17.269531 36.746094 17.273438 36.75 17.273438 36.773438 C 17.402344 37.015625 17.527344 37.230469 17.65625 37.445312 C 17.65625 37.445312 17.667969 37.460938 17.675781 37.488281 C 17.722656 37.871094 17.664062 37.933594 17.347656 37.878906 C 17.347656 37.878906 17.332031 37.863281 17.328125 37.835938 C 17.21875 37.683594 17.117188 37.566406 17.015625 37.445312 Z M 17.015625 37.445312 "/>
<path style=" stroke:none;fill-rule:nonzero;fill:rgb(18.431373%,0.392157%,0.392157%);fill-opacity:1;" d="M 20.957031 26.484375 C 21.066406 26.15625 21.183594 25.816406 21.316406 25.480469 C 21.542969 24.910156 21.796875 24.351562 22 23.773438 C 22.160156 23.324219 22.257812 22.851562 22.382812 22.390625 C 22.414062 22.269531 22.457031 22.152344 22.511719 22.019531 C 22.390625 22.570312 22.304688 23.148438 22.117188 23.6875 C 21.8125 24.546875 21.4375 25.382812 21.089844 26.230469 C 21.054688 26.3125 21.011719 26.390625 20.957031 26.484375 Z M 20.957031 26.484375 "/>
<path style=" stroke:none;fill-rule:nonzero;fill:rgb(18.431373%,0.392157%,0.392157%);fill-opacity:1;" d="M 13.972656 22.957031 C 13.988281 23.289062 14.007812 23.636719 14.011719 23.988281 C 14.015625 24.972656 14.015625 25.957031 14.011719 26.941406 C 14.011719 27.09375 14.003906 27.246094 13.988281 27.421875 C 13.949219 26.585938 13.894531 25.730469 13.890625 24.875 C 13.882812 24.242188 13.9375 23.609375 13.972656 22.957031 Z M 13.972656 22.957031 "/>
<path style=" stroke:none;fill-rule:nonzero;fill:rgb(18.431373%,0.392157%,0.392157%);fill-opacity:1;" d="M 16.601562 19.414062 C 16.796875 19.191406 16.976562 18.910156 17.230469 18.753906 C 17.558594 18.546875 17.945312 18.429688 18.3125 18.292969 C 18.382812 18.265625 18.492188 18.304688 18.558594 18.347656 C 18.582031 18.367188 18.546875 18.496094 18.515625 18.5625 C 18.308594 19.035156 18.097656 19.503906 17.875 19.984375 C 17.988281 19.652344 18.109375 19.304688 18.242188 18.960938 C 18.3125 18.78125 18.402344 18.605469 18.507812 18.375 C 18.15625 18.363281 17.863281 18.425781 17.625 18.59375 C 17.273438 18.839844 16.953125 19.132812 16.601562 19.414062 Z M 16.601562 19.414062 "/>
<path style=" stroke:none;fill-rule:nonzero;fill:rgb(18.431373%,0.392157%,0.392157%);fill-opacity:1;" d="M 15.257812 19.195312 C 15.144531 19.535156 14.980469 19.664062 14.644531 19.652344 C 14.464844 19.644531 14.410156 19.738281 14.375 19.882812 C 14.292969 20.222656 14.207031 20.5625 14.113281 20.914062 C 14.171875 20.523438 14.238281 20.113281 14.328125 19.710938 C 14.339844 19.640625 14.464844 19.535156 14.496094 19.546875 C 14.871094 19.683594 15.03125 19.398438 15.257812 19.195312 Z M 15.257812 19.195312 "/>
<path style=" stroke:none;fill-rule:nonzero;fill:rgb(18.431373%,0.392157%,0.392157%);fill-opacity:1;" d="M 24.96875 23.933594 C 25 23.984375 25.046875 24.058594 25.046875 24.132812 C 25.050781 24.816406 25.046875 25.496094 25.039062 26.179688 C 25.039062 26.230469 25.011719 26.28125 24.984375 26.347656 C 24.96875 25.5625 24.96875 24.761719 24.96875 23.933594 Z M 24.96875 23.933594 "/>
<path style=" stroke:none;fill-rule:nonzero;fill:rgb(18.431373%,0.392157%,0.392157%);fill-opacity:1;" d="M 15.675781 32.261719 C 15.636719 32.1875 15.5625 32.089844 15.558594 31.992188 C 15.515625 31.289062 15.492188 30.585938 15.46875 29.863281 C 15.515625 30.425781 15.546875 31.011719 15.589844 31.597656 C 15.605469 31.8125 15.648438 32.027344 15.675781 32.261719 Z M 15.675781 32.261719 "/>
<path style=" stroke:none;fill-rule:nonzero;fill:rgb(18.431373%,0.392157%,0.392157%);fill-opacity:1;" d="M 14.425781 31.484375 C 14.480469 31.597656 14.539062 31.726562 14.578125 31.859375 C 14.773438 32.550781 14.96875 33.242188 15.160156 33.953125 C 14.976562 33.441406 14.789062 32.910156 14.621094 32.371094 C 14.535156 32.089844 14.488281 31.796875 14.425781 31.484375 Z M 14.425781 31.484375 "/>
<path style=" stroke:none;fill-rule:nonzero;fill:rgb(18.431373%,0.392157%,0.392157%);fill-opacity:1;" d="M 19.222656 26.375 C 19.320312 26.554688 19.410156 26.757812 19.507812 26.953125 C 19.550781 27.03125 19.617188 27.101562 19.671875 27.175781 C 19.730469 27.109375 19.789062 27.050781 19.84375 26.984375 C 19.925781 26.886719 19.914062 26.65625 20.152344 26.789062 C 20.078125 26.871094 19.976562 26.929688 19.917969 27.015625 C 19.832031 27.132812 19.777344 27.273438 19.710938 27.40625 C 19.675781 27.410156 19.640625 27.414062 19.609375 27.417969 C 19.480469 27.078125 19.351562 26.734375 19.222656 26.375 Z M 19.222656 26.375 "/>
<path style=" stroke:none;fill-rule:nonzero;fill:rgb(18.431373%,0.392157%,0.392157%);fill-opacity:1;" d="M 14.847656 17.644531 C 14.980469 17.5 15.105469 17.269531 15.28125 17.21875 C 15.703125 17.097656 16.152344 17.058594 16.609375 16.996094 C 16.441406 17.039062 16.257812 17.09375 16.070312 17.109375 C 15.605469 17.148438 15.179688 17.265625 14.847656 17.644531 Z M 14.847656 17.644531 "/>
<path style=" stroke:none;fill-rule:nonzero;fill:rgb(18.431373%,0.392157%,0.392157%);fill-opacity:1;" d="M 22.554688 21.828125 C 22.542969 21.738281 22.535156 21.632812 22.542969 21.527344 C 22.578125 21.015625 22.621094 20.503906 22.664062 19.96875 C 22.699219 20.140625 22.78125 20.34375 22.761719 20.539062 C 22.722656 20.964844 22.632812 21.386719 22.554688 21.828125 Z M 22.554688 21.828125 "/>
<path style=" stroke:none;fill-rule:nonzero;fill:rgb(18.431373%,0.392157%,0.392157%);fill-opacity:1;" d="M 17.792969 21.484375 C 17.859375 21.683594 17.929688 21.902344 17.980469 22.128906 C 18.070312 22.527344 18.144531 22.929688 18.222656 23.347656 C 18.074219 22.746094 17.929688 22.128906 17.792969 21.484375 Z M 17.792969 21.484375 "/>
<path style=" stroke:none;fill-rule:nonzero;fill:rgb(18.431373%,0.392157%,0.392157%);fill-opacity:1;" d="M 15.703125 22.699219 C 15.75 22.464844 15.808594 22.214844 15.871094 21.964844 C 15.953125 21.621094 16.042969 21.277344 16.132812 20.914062 C 16.15625 21.011719 16.234375 21.148438 16.203125 21.253906 C 16.054688 21.734375 15.878906 22.207031 15.703125 22.699219 Z M 15.703125 22.699219 "/>
<path style=" stroke:none;fill-rule:nonzero;fill:rgb(18.431373%,0.392157%,0.392157%);fill-opacity:1;" d="M 18.554688 24.527344 C 18.621094 24.648438 18.699219 24.785156 18.753906 24.929688 C 18.90625 25.355469 19.054688 25.785156 19.199219 26.230469 C 18.980469 25.679688 18.765625 25.113281 18.554688 24.527344 Z M 18.554688 24.527344 "/>
<path style=" stroke:none;fill-rule:nonzero;fill:rgb(18.431373%,0.392157%,0.392157%);fill-opacity:1;" d="M 16.210938 34.28125 C 16.082031 33.921875 15.9375 33.546875 15.824219 33.164062 C 15.753906 32.925781 15.726562 32.675781 15.6875 32.414062 C 15.867188 33.015625 16.039062 33.636719 16.210938 34.28125 Z M 16.210938 34.28125 "/>
<path style=" stroke:none;fill-rule:nonzero;fill:rgb(18.431373%,0.392157%,0.392157%);fill-opacity:1;" d="M 24.507812 30.347656 C 24.484375 30.675781 24.464844 31.023438 24.414062 31.371094 C 24.386719 31.5625 24.304688 31.746094 24.234375 31.949219 C 24.316406 31.429688 24.410156 30.898438 24.507812 30.347656 Z M 24.507812 30.347656 "/>
<path style=" stroke:none;fill-rule:nonzero;fill:rgb(18.431373%,0.392157%,0.392157%);fill-opacity:1;" d="M 16.128906 20.847656 C 16.101562 20.6875 16.011719 20.476562 16.066406 20.316406 C 16.179688 20.015625 16.375 19.75 16.550781 19.460938 C 16.496094 19.578125 16.433594 19.707031 16.347656 19.824219 C 16.128906 20.128906 16.0625 20.460938 16.128906 20.847656 Z M 16.128906 20.847656 "/>
<path style=" stroke:none;fill-rule:nonzero;fill:rgb(18.431373%,0.392157%,0.392157%);fill-opacity:1;" d="M 15.359375 27.480469 C 15.328125 27.332031 15.28125 27.160156 15.28125 26.988281 C 15.28125 26.660156 15.3125 26.332031 15.339844 25.988281 C 15.355469 26.46875 15.359375 26.960938 15.359375 27.480469 Z M 15.359375 27.480469 "/>
<path style=" stroke:none;fill-rule:nonzero;fill:rgb(18.431373%,0.392157%,0.392157%);fill-opacity:1;" d="M 16.226562 18.089844 C 15.933594 18.449219 15.621094 18.8125 15.292969 19.183594 C 15.585938 18.824219 15.898438 18.460938 16.226562 18.089844 Z M 16.226562 18.089844 "/>
<path style=" stroke:none;fill-rule:nonzero;fill:rgb(18.431373%,0.392157%,0.392157%);fill-opacity:1;" d="M 14.078125 21.109375 C 14.0625 21.515625 14.039062 21.941406 14.003906 22.382812 C 14.015625 21.972656 14.042969 21.550781 14.078125 21.109375 Z M 14.078125 21.109375 "/>
<path style=" stroke:none;fill-rule:nonzero;fill:rgb(18.431373%,0.392157%,0.392157%);fill-opacity:1;" d="M 15.378906 25.410156 C 15.394531 25.023438 15.417969 24.617188 15.457031 24.195312 C 15.441406 24.582031 15.414062 24.988281 15.378906 25.410156 Z M 15.378906 25.410156 "/>
<path style=" stroke:none;fill-rule:nonzero;fill:rgb(18.431373%,0.392157%,0.392157%);fill-opacity:1;" d="M 16.378906 36.480469 C 16.582031 36.769531 16.789062 37.074219 16.996094 37.398438 C 16.792969 37.113281 16.585938 36.804688 16.378906 36.480469 Z M 16.378906 36.480469 "/>
<path style=" stroke:none;fill-rule:nonzero;fill:rgb(18.431373%,0.392157%,0.392157%);fill-opacity:1;" d="M 22.214844 18.84375 C 22.15625 18.773438 22.082031 18.691406 22.050781 18.597656 C 22.007812 18.46875 21.996094 18.332031 21.972656 18.203125 C 22.121094 18.203125 22.265625 18.207031 22.410156 18.210938 C 22.433594 18.210938 22.457031 18.234375 22.492188 18.261719 C 21.960938 18.214844 21.960938 18.214844 22.179688 18.722656 C 22.191406 18.753906 22.203125 18.789062 22.214844 18.84375 Z M 22.214844 18.84375 "/>
<path style=" stroke:none;fill-rule:nonzero;fill:rgb(18.431373%,0.392157%,0.392157%);fill-opacity:1;" d="M 24.257812 19.578125 C 24.570312 19.796875 24.667969 20.148438 24.75 20.523438 C 24.582031 20.222656 24.421875 19.910156 24.257812 19.578125 Z M 24.257812 19.578125 "/>
<path style=" stroke:none;fill-rule:nonzero;fill:rgb(18.431373%,0.392157%,0.392157%);fill-opacity:1;" d="M 15.5625 34.90625 C 15.734375 35.222656 15.90625 35.558594 16.078125 35.914062 C 15.90625 35.597656 15.734375 35.261719 15.5625 34.90625 Z M 15.5625 34.90625 "/>
<path style=" stroke:none;fill-rule:nonzero;fill:rgb(18.431373%,0.392157%,0.392157%);fill-opacity:1;" d="M 12.296875 20.039062 C 12.515625 19.8125 12.753906 19.578125 13.007812 19.34375 C 12.789062 19.574219 12.550781 19.804688 12.296875 20.039062 Z M 12.296875 20.039062 "/>
<path style=" stroke:none;fill-rule:nonzero;fill:rgb(18.431373%,0.392157%,0.392157%);fill-opacity:1;" d="M 17.351562 37.894531 C 17.664062 37.933594 17.722656 37.871094 17.675781 37.5 C 17.878906 37.742188 17.863281 37.828125 17.515625 38.105469 C 17.464844 38.042969 17.410156 37.976562 17.351562 37.894531 Z M 17.351562 37.894531 "/>
<path style=" stroke:none;fill-rule:nonzero;fill:rgb(18.431373%,0.392157%,0.392157%);fill-opacity:1;" d="M 20.1875 26.863281 C 20.265625 26.960938 20.351562 27.082031 20.449219 27.222656 C 20.496094 27.195312 20.550781 27.164062 20.621094 27.125 C 20.578125 27.21875 20.523438 27.320312 20.464844 27.425781 C 20.4375 27.421875 20.40625 27.417969 20.378906 27.417969 C 20.316406 27.238281 20.253906 27.0625 20.1875 26.863281 Z M 20.1875 26.863281 "/>
<path style=" stroke:none;fill-rule:nonzero;fill:rgb(18.431373%,0.392157%,0.392157%);fill-opacity:1;" d="M 22.636719 19.824219 C 22.503906 19.546875 22.367188 19.25 22.230469 18.933594 C 22.363281 19.207031 22.5 19.507812 22.636719 19.824219 Z M 22.636719 19.824219 "/>
<path style=" stroke:none;fill-rule:nonzero;fill:rgb(18.431373%,0.392157%,0.392157%);fill-opacity:1;" d="M 18.230469 23.492188 C 18.332031 23.769531 18.429688 24.070312 18.527344 24.390625 C 18.429688 24.113281 18.328125 23.8125 18.230469 23.492188 Z M 18.230469 23.492188 "/>
<path style=" stroke:none;fill-rule:nonzero;fill:rgb(18.431373%,0.392157%,0.392157%);fill-opacity:1;" d="M 24.542969 21.589844 C 24.628906 21.914062 24.710938 22.257812 24.792969 22.621094 C 24.707031 22.300781 24.625 21.957031 24.542969 21.589844 Z M 24.542969 21.589844 "/>
<path style=" stroke:none;fill-rule:nonzero;fill:rgb(18.431373%,0.392157%,0.392157%);fill-opacity:1;" d="M 14.101562 28.769531 C 14.140625 29.023438 14.175781 29.300781 14.203125 29.597656 C 14.160156 29.34375 14.128906 29.066406 14.101562 28.769531 Z M 14.101562 28.769531 "/>
<path style=" stroke:none;fill-rule:nonzero;fill:rgb(18.431373%,0.392157%,0.392157%);fill-opacity:1;" d="M 13.992188 27.628906 C 14.03125 27.898438 14.070312 28.195312 14.097656 28.507812 C 14.054688 28.238281 14.019531 27.945312 13.992188 27.628906 Z M 13.992188 27.628906 "/>
<path style=" stroke:none;fill-rule:nonzero;fill:rgb(18.431373%,0.392157%,0.392157%);fill-opacity:1;" d="M 13.828125 18.59375 C 14.015625 18.402344 14.222656 18.203125 14.445312 17.996094 C 14.257812 18.191406 14.050781 18.386719 13.828125 18.59375 Z M 13.828125 18.59375 "/>
<path style=" stroke:none;fill-rule:nonzero;fill:rgb(18.431373%,0.392157%,0.392157%);fill-opacity:1;" d="M 16.980469 36.183594 C 16.847656 35.917969 16.714844 35.636719 16.585938 35.332031 C 16.714844 35.59375 16.847656 35.878906 16.980469 36.183594 Z M 16.980469 36.183594 "/>
<path style=" stroke:none;fill-rule:nonzero;fill:rgb(18.431373%,0.392157%,0.392157%);fill-opacity:1;" d="M 24.953125 26.710938 C 24.941406 26.988281 24.917969 27.285156 24.882812 27.597656 C 24.894531 27.316406 24.921875 27.023438 24.953125 26.710938 Z M 24.953125 26.710938 "/>
<path style=" stroke:none;fill-rule:nonzero;fill:rgb(18.431373%,0.392157%,0.392157%);fill-opacity:1;" d="M 15.464844 29.4375 C 15.429688 29.234375 15.402344 29.007812 15.386719 28.761719 C 15.421875 28.96875 15.445312 29.191406 15.464844 29.4375 Z M 15.464844 29.4375 "/>
<path style=" stroke:none;fill-rule:nonzero;fill:rgb(18.431373%,0.392157%,0.392157%);fill-opacity:1;" d="M 24.871094 23.007812 C 24.90625 23.226562 24.941406 23.464844 24.96875 23.726562 C 24.929688 23.507812 24.898438 23.269531 24.871094 23.007812 Z M 24.871094 23.007812 "/>
<path style=" stroke:none;fill-rule:nonzero;fill:rgb(18.431373%,0.392157%,0.392157%);fill-opacity:1;" d="M 17.652344 37.429688 C 17.527344 37.230469 17.402344 37.015625 17.273438 36.777344 C 17.398438 36.972656 17.523438 37.191406 17.652344 37.429688 Z M 17.652344 37.429688 "/>
<path style=" stroke:none;fill-rule:nonzero;fill:rgb(18.431373%,0.392157%,0.392157%);fill-opacity:1;" d="M 14.210938 29.855469 C 14.25 30.109375 14.285156 30.386719 14.3125 30.683594 C 14.273438 30.429688 14.238281 30.152344 14.210938 29.855469 Z M 14.210938 29.855469 "/>
<path style=" stroke:none;fill-rule:nonzero;fill:rgb(18.431373%,0.392157%,0.392157%);fill-opacity:1;" d="M 16.554688 35.203125 C 16.453125 34.980469 16.355469 34.734375 16.253906 34.46875 C 16.355469 34.691406 16.453125 34.9375 16.554688 35.203125 Z M 16.554688 35.203125 "/>
<path style=" stroke:none;fill-rule:nonzero;fill:rgb(18.431373%,0.392157%,0.392157%);fill-opacity:1;" d="M 24.621094 29.425781 C 24.605469 29.632812 24.582031 29.859375 24.546875 30.101562 C 24.5625 29.890625 24.585938 29.667969 24.621094 29.425781 Z M 24.621094 29.425781 "/>
<path style=" stroke:none;fill-rule:nonzero;fill:rgb(18.431373%,0.392157%,0.392157%);fill-opacity:1;" d="M 23.710938 18.980469 C 23.859375 19.121094 24.015625 19.28125 24.171875 19.457031 C 24.019531 19.316406 23.871094 19.160156 23.710938 18.980469 Z M 23.710938 18.980469 "/>
<path style=" stroke:none;fill-rule:nonzero;fill:rgb(18.431373%,0.392157%,0.392157%);fill-opacity:1;" d="M 16.816406 16.988281 C 16.859375 16.957031 16.921875 16.914062 16.988281 16.910156 C 17.0625 16.902344 17.136719 16.9375 17.210938 16.957031 C 17.171875 17.023438 17.132812 17.09375 17.074219 17.164062 C 17.121094 16.945312 16.960938 16.992188 16.816406 16.988281 Z M 16.816406 16.988281 "/>
<path style=" stroke:none;fill-rule:nonzero;fill:rgb(18.431373%,0.392157%,0.392157%);fill-opacity:1;" d="M 24.730469 20.78125 C 24.664062 20.953125 24.59375 21.144531 24.511719 21.355469 C 24.523438 21.269531 24.53125 21.164062 24.566406 21.070312 C 24.601562 20.972656 24.667969 20.886719 24.730469 20.78125 Z M 24.730469 20.78125 "/>
<path style=" stroke:none;fill-rule:nonzero;fill:rgb(18.431373%,0.392157%,0.392157%);fill-opacity:1;" d="M 13.21875 19.164062 C 13.347656 19.03125 13.492188 18.890625 13.652344 18.746094 C 13.527344 18.882812 13.382812 19.023438 13.21875 19.164062 Z M 13.21875 19.164062 "/>
<path style=" stroke:none;fill-rule:nonzero;fill:rgb(18.431373%,0.392157%,0.392157%);fill-opacity:1;" d="M 16.777344 17.453125 C 16.683594 17.589844 16.570312 17.730469 16.445312 17.878906 C 16.539062 17.742188 16.648438 17.601562 16.777344 17.453125 Z M 16.777344 17.453125 "/>
<path style=" stroke:none;fill-rule:nonzero;fill:rgb(18.431373%,0.392157%,0.392157%);fill-opacity:1;" d="M 24.832031 27.902344 C 24.820312 28.074219 24.800781 28.265625 24.769531 28.46875 C 24.78125 28.296875 24.804688 28.109375 24.832031 27.902344 Z M 24.832031 27.902344 "/>
<path style=" stroke:none;fill-rule:nonzero;fill:rgb(18.431373%,0.392157%,0.392157%);fill-opacity:1;" d="M 15.488281 24.054688 C 15.5 23.882812 15.519531 23.691406 15.550781 23.488281 C 15.539062 23.660156 15.515625 23.847656 15.488281 24.054688 Z M 15.488281 24.054688 "/>
<path style=" stroke:none;fill-rule:nonzero;fill:rgb(18.431373%,0.392157%,0.392157%);fill-opacity:1;" d="M 24.730469 28.664062 C 24.714844 28.851562 24.691406 29.0625 24.65625 29.285156 C 24.667969 29.09375 24.695312 28.886719 24.730469 28.664062 Z M 24.730469 28.664062 "/>
<path style=" stroke:none;fill-rule:nonzero;fill:rgb(18.431373%,0.392157%,0.392157%);fill-opacity:1;" d="M 22.679688 18.316406 C 22.839844 18.382812 23.015625 18.460938 23.203125 18.550781 C 23.039062 18.488281 22.867188 18.40625 22.679688 18.316406 Z M 22.679688 18.316406 "/>
<path style=" stroke:none;fill-rule:nonzero;fill:rgb(18.431373%,0.392157%,0.392157%);fill-opacity:1;" d="M 15.398438 28.625 C 15.378906 28.476562 15.367188 28.308594 15.363281 28.121094 C 15.382812 28.269531 15.390625 28.4375 15.398438 28.625 Z M 15.398438 28.625 "/>
<path style=" stroke:none;fill-rule:nonzero;fill:rgb(18.431373%,0.392157%,0.392157%);fill-opacity:1;" d="M 14.3125 30.832031 C 14.355469 30.980469 14.390625 31.148438 14.417969 31.335938 C 14.378906 31.1875 14.34375 31.019531 14.3125 30.832031 Z M 14.3125 30.832031 "/>
<path style=" stroke:none;fill-rule:nonzero;fill:rgb(18.431373%,0.392157%,0.392157%);fill-opacity:1;" d="M 15.589844 23.292969 C 15.605469 23.15625 15.628906 23 15.667969 22.832031 C 15.652344 22.972656 15.625 23.125 15.589844 23.292969 Z M 15.589844 23.292969 "/>
<path style=" stroke:none;fill-rule:nonzero;fill:rgb(18.431373%,0.392157%,0.392157%);fill-opacity:1;" d="M 17.023438 37.460938 C 17.117188 37.566406 17.21875 37.683594 17.324219 37.824219 C 17.226562 37.722656 17.125 37.601562 17.023438 37.460938 Z M 17.023438 37.460938 "/>
<path style=" stroke:none;fill-rule:nonzero;fill:rgb(18.431373%,0.392157%,0.392157%);fill-opacity:1;" d="M 16.109375 35.992188 C 16.1875 36.109375 16.269531 36.246094 16.351562 36.398438 C 16.273438 36.28125 16.191406 36.148438 16.109375 35.992188 Z M 16.109375 35.992188 "/>
<path style=" stroke:none;fill-rule:nonzero;fill:rgb(18.431373%,0.392157%,0.392157%);fill-opacity:1;" d="M 17.777344 20.292969 C 17.777344 20.40625 17.773438 20.539062 17.757812 20.683594 C 17.757812 20.570312 17.761719 20.441406 17.777344 20.292969 Z M 17.777344 20.292969 "/>
<path style=" stroke:none;fill-rule:nonzero;fill:rgb(18.431373%,0.392157%,0.392157%);fill-opacity:1;" d="M 17.746094 21.046875 C 17.765625 21.125 17.78125 21.222656 17.789062 21.339844 C 17.769531 21.257812 17.753906 21.164062 17.746094 21.046875 Z M 17.746094 21.046875 "/>
<path style=" stroke:none;fill-rule:nonzero;fill:rgb(18.431373%,0.392157%,0.392157%);fill-opacity:1;" d="M 23.355469 18.667969 C 23.425781 18.703125 23.5 18.757812 23.585938 18.824219 C 23.515625 18.789062 23.441406 18.734375 23.355469 18.667969 Z M 23.355469 18.667969 "/>
<path style=" stroke:none;fill-rule:nonzero;fill:rgb(18.431373%,0.392157%,0.392157%);fill-opacity:1;" d="M 15.40625 34.578125 C 15.449219 34.640625 15.492188 34.722656 15.539062 34.824219 C 15.496094 34.761719 15.449219 34.679688 15.40625 34.578125 Z M 15.40625 34.578125 "/>
<path style=" stroke:none;fill-rule:nonzero;fill:rgb(18.431373%,0.392157%,0.392157%);fill-opacity:1;" d="M 20.742188 26.921875 C 20.757812 26.855469 20.789062 26.777344 20.835938 26.691406 C 20.820312 26.757812 20.789062 26.835938 20.742188 26.921875 Z M 20.742188 26.921875 "/>
<path style=" stroke:none;fill-rule:nonzero;fill:rgb(18.431373%,0.392157%,0.392157%);fill-opacity:1;" d="M 17.003906 17.214844 C 16.972656 17.265625 16.925781 17.324219 16.863281 17.386719 C 16.894531 17.335938 16.941406 17.277344 17.003906 17.214844 Z M 17.003906 17.214844 "/>
<path style=" stroke:none;fill-rule:nonzero;fill:rgb(18.431373%,0.392157%,0.392157%);fill-opacity:1;" d="M 24.800781 22.675781 C 24.820312 22.722656 24.839844 22.785156 24.855469 22.863281 C 24.832031 22.816406 24.816406 22.757812 24.800781 22.675781 Z M 24.800781 22.675781 "/>
<path style=" stroke:none;fill-rule:nonzero;fill:rgb(18.431373%,0.392157%,0.392157%);fill-opacity:1;" d="M 17.265625 36.730469 C 17.234375 36.703125 17.203125 36.660156 17.171875 36.605469 C 17.199219 36.628906 17.234375 36.671875 17.265625 36.730469 Z M 17.265625 36.730469 "/>
<path style=" stroke:none;fill-rule:nonzero;fill:rgb(18.431373%,0.392157%,0.392157%);fill-opacity:1;" d="M 15.289062 34.304688 C 15.316406 34.339844 15.34375 34.386719 15.371094 34.453125 C 15.34375 34.421875 15.316406 34.371094 15.289062 34.304688 Z M 15.289062 34.304688 "/>
<path style=" stroke:none;fill-rule:nonzero;fill:rgb(18.431373%,0.392157%,0.392157%);fill-opacity:1;" d="M 15.191406 34.085938 C 15.21875 34.117188 15.246094 34.160156 15.273438 34.21875 C 15.246094 34.191406 15.21875 34.148438 15.191406 34.085938 Z M 15.191406 34.085938 "/>
<path style=" stroke:none;fill-rule:nonzero;fill:rgb(18.431373%,0.392157%,0.392157%);fill-opacity:1;" d="M 17.128906 36.507812 C 17.125 36.515625 17.113281 36.492188 17.113281 36.484375 C 17.125 36.480469 17.132812 36.488281 17.128906 36.507812 Z M 17.128906 36.507812 "/>
<path style=" stroke:none;fill-rule:nonzero;fill:rgb(18.431373%,0.392157%,0.392157%);fill-opacity:1;" d="M 16.296875 18.015625 C 16.304688 18.023438 16.296875 18.03125 16.285156 18.039062 C 16.273438 18.03125 16.277344 18.023438 16.296875 18.015625 Z M 16.296875 18.015625 "/>
<path style=" stroke:none;fill-rule:nonzero;fill:rgb(18.431373%,0.392157%,0.392157%);fill-opacity:1;" d="M 17.046875 36.347656 C 17.035156 36.347656 17.023438 36.335938 17.015625 36.308594 C 17.03125 36.304688 17.039062 36.316406 17.046875 36.347656 Z M 17.046875 36.347656 "/>
<path style=" stroke:none;fill-rule:nonzero;fill:rgb(18.431373%,0.392157%,0.392157%);fill-opacity:1;" d="M 17.808594 20.101562 C 17.820312 20.109375 17.816406 20.121094 17.804688 20.144531 C 17.789062 20.140625 17.789062 20.125 17.808594 20.101562 Z M 17.808594 20.101562 "/>
<path style=" stroke:none;fill-rule:nonzero;fill:rgb(18.431373%,0.392157%,0.392157%);fill-opacity:1;" d="M 12.074219 20.246094 C 12.066406 20.234375 12.074219 20.226562 12.089844 20.21875 C 12.101562 20.226562 12.09375 20.238281 12.074219 20.246094 Z M 12.074219 20.246094 "/>
<path style=" stroke:none;fill-rule:nonzero;fill:rgb(79.607844%,4.705882%,0.392157%);fill-opacity:1;" d="M 17.835938 13.742188 C 17.84375 13.75 17.847656 13.761719 17.847656 13.777344 C 17.839844 13.777344 17.832031 13.777344 17.820312 13.769531 C 17.816406 13.761719 17.828125 13.746094 17.835938 13.742188 Z M 17.835938 13.742188 "/>
</g>
</svg>
