<?xml version="1.0" encoding="UTF-8"?>
<svg xmlns="http://www.w3.org/2000/svg" xmlns:xlink="http://www.w3.org/1999/xlink" width="67px" height="83px" viewBox="0 0 67 82" version="1.1">
<g id="surface1">
<path style=" stroke:none;fill-rule:nonzero;fill:rgb(96.078432%,96.078432%,96.078432%);fill-opacity:1;" d="M 0.0898438 30.695312 C 0.0898438 20.464844 0.0898438 10.28125 0.0898438 0.09375 C 22.417969 0.09375 44.746094 0.09375 67.082031 0.09375 C 67.082031 27.414062 67.082031 54.738281 67.082031 82.078125 C 44.757812 82.078125 22.425781 82.078125 0.0898438 82.078125 C 0.0898438 64.96875 0.0898438 47.851562 0.0898438 30.695312 M 53.089844 46.925781 C 55.199219 48.136719 57.3125 49.34375 59.425781 50.550781 C 60.332031 51.070312 60.683594 51.886719 60.714844 52.878906 C 60.722656 53.148438 60.757812 53.421875 60.714844 53.6875 C 60.4375 55.386719 60.273438 57.117188 59.824219 58.773438 C 58.464844 63.796875 56.992188 68.785156 55.570312 73.792969 C 55.003906 75.800781 54.460938 77.816406 53.902344 79.832031 C 53.941406 79.855469 53.984375 79.882812 54.023438 79.910156 C 54.179688 79.730469 54.347656 79.558594 54.496094 79.371094 C 59.902344 72.429688 63.460938 64.628906 65.523438 56.140625 C 66.019531 54.101562 66.363281 52.027344 66.203125 49.90625 C 66.121094 48.777344 65.671875 47.910156 64.601562 47.4375 C 63.21875 46.828125 61.859375 46.160156 60.433594 45.65625 C 53.660156 43.265625 46.703125 41.492188 39.699219 39.902344 C 39.3125 39.816406 39.179688 39.582031 39.007812 39.226562 C 39.1875 39.273438 39.300781 39.304688 39.410156 39.335938 C 43.148438 40.4375 46.964844 41.085938 50.859375 41.273438 C 53.234375 41.382812 55.585938 41.289062 57.898438 40.65625 C 60.003906 40.082031 61.261719 38.75 61.8125 36.683594 C 62.453125 34.261719 62.40625 31.804688 62.132812 29.355469 C 61.480469 23.484375 59.851562 17.867188 57.476562 12.457031 C 56.6875 10.652344 55.800781 8.894531 54.539062 7.355469 C 54.441406 7.238281 54.335938 7.132812 54.148438 6.933594 C 54.183594 7.195312 54.195312 7.3125 54.21875 7.429688 C 54.820312 10.566406 55.460938 13.699219 56.019531 16.839844 C 56.675781 20.507812 57.15625 24.195312 57.117188 27.929688 C 57.097656 29.949219 56.933594 31.949219 56.242188 33.867188 C 55.648438 35.507812 54.71875 36.878906 52.941406 37.457031 C 51.464844 37.9375 49.949219 37.628906 48.398438 37.730469 C 48.445312 37.578125 48.464844 37.507812 48.492188 37.441406 C 50.40625 32.726562 50.835938 27.851562 49.996094 22.863281 C 48.828125 15.898438 45.613281 9.859375 41.316406 4.328125 C 41.242188 4.234375 41.136719 4.171875 41.011719 4.066406 C 41.535156 5.398438 42.074219 6.644531 42.519531 7.925781 C 44.082031 12.449219 45.136719 17.097656 45.753906 21.839844 C 46.136719 24.773438 46.335938 27.722656 45.980469 30.675781 C 45.796875 32.175781 45.472656 33.632812 44.667969 34.945312 C 43.933594 36.144531 42.890625 36.796875 41.453125 36.632812 C 40.175781 36.484375 38.90625 36.265625 37.632812 36.058594 C 36.824219 35.929688 36.019531 35.777344 35.253906 35.640625 C 35.859375 35.183594 36.503906 34.78125 37.046875 34.269531 C 38.726562 32.675781 39.605469 30.671875 39.828125 28.410156 C 40.128906 25.316406 39.394531 22.496094 37.238281 20.160156 C 36.003906 18.824219 34.46875 18.070312 32.574219 18.335938 C 30.660156 18.601562 29.296875 19.707031 28.292969 21.253906 C 26.691406 23.71875 26.253906 26.441406 26.804688 29.285156 C 27.328125 31.980469 28.671875 34.175781 31.203125 35.515625 C 31.234375 35.53125 31.242188 35.582031 31.253906 35.605469 C 29.261719 35.875 27.285156 36.164062 25.296875 36.410156 C 23.332031 36.652344 22.320312 36.078125 21.484375 34.316406 C 20.769531 32.808594 20.519531 31.195312 20.410156 29.558594 C 20.1875 26.15625 20.53125 22.785156 21.105469 19.4375 C 21.984375 14.3125 23.210938 9.277344 25.351562 4.5 C 25.386719 4.421875 25.382812 4.332031 25.398438 4.246094 C 25.359375 4.226562 25.324219 4.207031 25.289062 4.183594 C 25.261719 4.238281 25.242188 4.300781 25.207031 4.347656 C 21.542969 9.265625 18.757812 14.597656 17.425781 20.605469 C 16.226562 26.015625 16.414062 31.359375 18.386719 36.589844 C 18.484375 36.847656 18.585938 37.109375 18.707031 37.425781 C 17.765625 37.425781 16.890625 37.417969 16.015625 37.429688 C 13.726562 37.464844 12.15625 36.390625 11.195312 34.382812 C 10.558594 33.050781 10.269531 31.625 10.125 30.171875 C 9.777344 26.636719 10.042969 23.121094 10.613281 19.636719 C 11.261719 15.65625 12.058594 11.699219 12.789062 7.734375 C 12.847656 7.417969 12.890625 7.101562 12.964844 6.652344 C 12.769531 6.855469 12.648438 6.949219 12.570312 7.070312 C 11.960938 7.996094 11.285156 8.890625 10.761719 9.867188 C 8.777344 13.585938 7.425781 17.542969 6.367188 21.605469 C 5.445312 25.15625 4.785156 28.75 4.808594 32.441406 C 4.816406 33.871094 4.964844 35.285156 5.386719 36.660156 C 5.953125 38.523438 7.113281 39.839844 9.046875 40.3125 C 10.320312 40.621094 11.632812 40.867188 12.9375 40.941406 C 17.167969 41.191406 21.316406 40.574219 25.425781 39.628906 C 26.304688 39.425781 27.175781 39.183594 28.089844 38.949219 C 28.019531 39.347656 27.816406 39.519531 27.464844 39.601562 C 25.355469 40.101562 23.25 40.597656 21.148438 41.132812 C 16.234375 42.390625 11.328125 43.695312 6.558594 45.425781 C 5.042969 45.976562 3.589844 46.699219 2.121094 47.378906 C 1.46875 47.683594 1.171875 48.265625 1.066406 48.964844 C 0.851562 50.390625 0.996094 51.808594 1.21875 53.21875 C 1.921875 57.644531 3.332031 61.863281 5.097656 65.972656 C 7.132812 70.714844 9.660156 75.171875 12.96875 79.175781 C 13.117188 79.351562 13.269531 79.527344 13.421875 79.699219 C 13.46875 79.523438 13.445312 79.390625 13.410156 79.261719 C 12.683594 76.617188 11.957031 73.96875 11.222656 71.328125 C 9.925781 66.671875 8.601562 62.03125 7.339844 57.367188 C 6.898438 55.730469 6.605469 54.054688 6.714844 52.339844 C 6.765625 51.550781 7.070312 50.917969 7.746094 50.433594 C 9.820312 48.953125 12.058594 47.761719 14.371094 46.695312 C 14.382812 46.710938 14.394531 46.722656 14.394531 46.804688 C 14.238281 47.238281 14.027344 47.660156 13.929688 48.105469 C 13.597656 49.59375 13.601562 51.113281 13.679688 52.625 C 13.945312 57.828125 15.054688 62.855469 16.953125 67.710938 C 18.296875 71.152344 20.039062 74.378906 22.46875 77.207031 C 22.671875 77.441406 22.90625 77.640625 23.125 77.90625 C 23.144531 77.90625 23.164062 77.90625 23.183594 77.90625 C 23.179688 77.894531 23.183594 77.871094 23.179688 77.871094 C 23.160156 77.867188 23.136719 77.867188 23.15625 77.800781 C 23.101562 77.601562 23.042969 77.398438 22.984375 77.195312 C 21.046875 70.625 19.464844 63.976562 18.707031 57.160156 C 18.464844 54.996094 18.308594 52.828125 18.570312 50.652344 C 18.691406 49.636719 18.90625 48.644531 19.828125 48.011719 C 21.402344 46.933594 23.234375 46.445312 25.066406 45.789062 C 25 46.128906 24.949219 46.390625 24.894531 46.652344 C 24.347656 49.144531 23.890625 51.65625 23.875 54.21875 C 23.851562 58.820312 24.820312 63.210938 26.890625 67.339844 C 27.894531 69.34375 29.109375 71.207031 30.851562 72.671875 C 32.8125 74.316406 34.320312 74.304688 36.277344 72.660156 C 37.789062 71.382812 38.894531 69.792969 39.828125 68.082031 C 41.863281 64.351562 42.945312 60.351562 43.183594 56.132812 C 43.367188 52.851562 43.167969 49.597656 42.230469 46.417969 C 42.175781 46.230469 42.117188 46.042969 42.039062 45.792969 C 42.476562 45.941406 42.828125 46.035156 43.164062 46.171875 C 44.390625 46.679688 45.628906 47.167969 46.835938 47.722656 C 47.652344 48.097656 48.144531 48.789062 48.328125 49.65625 C 48.457031 50.269531 48.566406 50.894531 48.609375 51.523438 C 48.796875 54.136719 48.539062 56.738281 48.199219 59.328125 C 47.449219 65.042969 46.21875 70.667969 44.730469 76.238281 C 44.558594 76.890625 44.390625 77.539062 44.21875 78.191406 C 45.613281 76.824219 46.734375 75.28125 47.710938 73.640625 C 50.070312 69.6875 51.605469 65.425781 52.605469 60.964844 C 53.425781 57.308594 53.941406 53.613281 53.691406 49.851562 C 53.625 48.867188 53.488281 47.882812 52.996094 46.960938 C 53.007812 46.945312 53.015625 46.933594 53.089844 46.925781 Z M 53.089844 46.925781 "/>
<path style=" stroke:none;fill-rule:nonzero;fill:rgb(0.784314%,0.784314%,0.784314%);fill-opacity:1;" d="M 23.125 77.855469 C 22.90625 77.640625 22.671875 77.441406 22.46875 77.207031 C 20.039062 74.378906 18.296875 71.152344 16.953125 67.710938 C 15.054688 62.855469 13.945312 57.828125 13.679688 52.625 C 13.601562 51.113281 13.597656 49.59375 13.929688 48.105469 C 14.027344 47.660156 14.238281 47.238281 14.421875 46.757812 C 14.414062 46.691406 14.375 46.667969 14.339844 46.644531 C 12.058594 47.761719 9.820312 48.953125 7.746094 50.433594 C 7.070312 50.917969 6.765625 51.550781 6.714844 52.339844 C 6.605469 54.054688 6.898438 55.730469 7.339844 57.367188 C 8.601562 62.03125 9.925781 66.671875 11.222656 71.328125 C 11.957031 73.96875 12.683594 76.617188 13.410156 79.261719 C 13.445312 79.390625 13.46875 79.523438 13.421875 79.699219 C 13.269531 79.527344 13.117188 79.351562 12.96875 79.175781 C 9.660156 75.171875 7.132812 70.714844 5.097656 65.972656 C 3.332031 61.863281 1.921875 57.644531 1.21875 53.21875 C 0.996094 51.808594 0.851562 50.390625 1.066406 48.964844 C 1.171875 48.265625 1.46875 47.683594 2.121094 47.378906 C 3.589844 46.699219 5.042969 45.976562 6.558594 45.425781 C 11.328125 43.695312 16.234375 42.390625 21.148438 41.132812 C 23.25 40.597656 25.355469 40.101562 27.464844 39.601562 C 27.816406 39.519531 28.019531 39.347656 28.089844 38.949219 C 27.175781 39.183594 26.304688 39.425781 25.425781 39.628906 C 21.316406 40.574219 17.167969 41.191406 12.9375 40.941406 C 11.632812 40.867188 10.320312 40.621094 9.046875 40.3125 C 7.113281 39.839844 5.953125 38.523438 5.386719 36.660156 C 4.964844 35.285156 4.816406 33.871094 4.808594 32.441406 C 4.785156 28.75 5.445312 25.15625 6.367188 21.605469 C 7.425781 17.542969 8.777344 13.585938 10.761719 9.867188 C 11.285156 8.890625 11.960938 7.996094 12.570312 7.070312 C 12.648438 6.949219 12.769531 6.855469 12.964844 6.652344 C 12.890625 7.101562 12.847656 7.417969 12.789062 7.734375 C 12.058594 11.699219 11.261719 15.65625 10.613281 19.636719 C 10.042969 23.121094 9.777344 26.636719 10.125 30.171875 C 10.269531 31.625 10.558594 33.050781 11.195312 34.382812 C 12.15625 36.390625 13.726562 37.464844 16.015625 37.429688 C 16.890625 37.417969 17.765625 37.425781 18.707031 37.425781 C 18.585938 37.109375 18.484375 36.847656 18.386719 36.589844 C 16.414062 31.359375 16.226562 26.015625 17.425781 20.605469 C 18.757812 14.597656 21.542969 9.265625 25.207031 4.347656 C 25.242188 4.300781 25.261719 4.238281 25.289062 4.183594 C 25.324219 4.207031 25.359375 4.226562 25.398438 4.246094 C 25.382812 4.332031 25.386719 4.421875 25.351562 4.5 C 23.210938 9.277344 21.984375 14.3125 21.105469 19.4375 C 20.53125 22.785156 20.1875 26.15625 20.410156 29.558594 C 20.519531 31.195312 20.769531 32.808594 21.484375 34.316406 C 22.320312 36.078125 23.332031 36.652344 25.296875 36.410156 C 27.285156 36.164062 29.261719 35.875 31.253906 35.605469 C 31.242188 35.582031 31.234375 35.53125 31.203125 35.515625 C 28.671875 34.175781 27.328125 31.980469 26.804688 29.285156 C 26.253906 26.441406 26.691406 23.71875 28.292969 21.253906 C 29.296875 19.707031 30.660156 18.601562 32.574219 18.335938 C 34.46875 18.070312 36.003906 18.824219 37.238281 20.160156 C 39.394531 22.496094 40.128906 25.316406 39.828125 28.410156 C 39.605469 30.671875 38.726562 32.675781 37.046875 34.269531 C 36.503906 34.78125 35.859375 35.183594 35.253906 35.640625 C 36.019531 35.777344 36.824219 35.929688 37.632812 36.058594 C 38.90625 36.265625 40.175781 36.484375 41.453125 36.632812 C 42.890625 36.796875 43.933594 36.144531 44.667969 34.945312 C 45.472656 33.632812 45.796875 32.175781 45.980469 30.675781 C 46.335938 27.722656 46.136719 24.773438 45.753906 21.839844 C 45.136719 17.097656 44.082031 12.449219 42.519531 7.925781 C 42.074219 6.644531 41.535156 5.398438 41.011719 4.066406 C 41.136719 4.171875 41.242188 4.234375 41.316406 4.328125 C 45.613281 9.859375 48.828125 15.898438 49.996094 22.863281 C 50.835938 27.851562 50.40625 32.726562 48.492188 37.441406 C 48.464844 37.507812 48.445312 37.578125 48.398438 37.730469 C 49.949219 37.628906 51.464844 37.9375 52.941406 37.457031 C 54.71875 36.878906 55.648438 35.507812 56.242188 33.867188 C 56.933594 31.949219 57.097656 29.949219 57.117188 27.929688 C 57.15625 24.195312 56.675781 20.507812 56.019531 16.839844 C 55.460938 13.699219 54.820312 10.566406 54.21875 7.429688 C 54.195312 7.3125 54.183594 7.195312 54.148438 6.933594 C 54.335938 7.132812 54.441406 7.238281 54.539062 7.355469 C 55.800781 8.894531 56.6875 10.652344 57.476562 12.457031 C 59.851562 17.867188 61.480469 23.484375 62.132812 29.355469 C 62.40625 31.804688 62.453125 34.261719 61.8125 36.683594 C 61.261719 38.75 60.003906 40.082031 57.898438 40.65625 C 55.585938 41.289062 53.234375 41.382812 50.859375 41.273438 C 46.964844 41.085938 43.148438 40.4375 39.410156 39.335938 C 39.300781 39.304688 39.1875 39.273438 39.007812 39.226562 C 39.179688 39.582031 39.3125 39.816406 39.699219 39.902344 C 46.703125 41.492188 53.660156 43.265625 60.433594 45.65625 C 61.859375 46.160156 63.21875 46.828125 64.601562 47.4375 C 65.671875 47.910156 66.121094 48.777344 66.203125 49.90625 C 66.363281 52.027344 66.019531 54.101562 65.523438 56.140625 C 63.460938 64.628906 59.902344 72.429688 54.496094 79.371094 C 54.347656 79.558594 54.179688 79.730469 54.023438 79.910156 C 53.984375 79.882812 53.941406 79.855469 53.902344 79.832031 C 54.460938 77.816406 55.003906 75.800781 55.570312 73.792969 C 56.992188 68.785156 58.464844 63.796875 59.824219 58.773438 C 60.273438 57.117188 60.4375 55.386719 60.714844 53.6875 C 60.757812 53.421875 60.722656 53.148438 60.714844 52.878906 C 60.683594 51.886719 60.332031 51.070312 59.425781 50.550781 C 57.3125 49.34375 55.199219 48.136719 53.03125 46.914062 C 52.917969 46.90625 52.863281 46.914062 52.71875 46.933594 C 52.859375 46.972656 52.914062 46.988281 52.964844 47.003906 C 53.488281 47.882812 53.625 48.867188 53.691406 49.851562 C 53.941406 53.613281 53.425781 57.308594 52.605469 60.964844 C 51.605469 65.425781 50.070312 69.6875 47.710938 73.640625 C 46.734375 75.28125 45.613281 76.824219 44.21875 78.191406 C 44.390625 77.539062 44.558594 76.890625 44.730469 76.238281 C 46.21875 70.667969 47.449219 65.042969 48.199219 59.328125 C 48.539062 56.738281 48.796875 54.136719 48.609375 51.523438 C 48.566406 50.894531 48.457031 50.269531 48.328125 49.65625 C 48.144531 48.789062 47.652344 48.097656 46.835938 47.722656 C 45.628906 47.167969 44.390625 46.679688 43.164062 46.171875 C 42.828125 46.035156 42.476562 45.941406 42.039062 45.792969 C 42.117188 46.042969 42.175781 46.230469 42.230469 46.417969 C 43.167969 49.597656 43.367188 52.851562 43.183594 56.132812 C 42.945312 60.351562 41.863281 64.351562 39.828125 68.082031 C 38.894531 69.792969 37.789062 71.382812 36.277344 72.660156 C 34.320312 74.304688 32.8125 74.316406 30.851562 72.671875 C 29.109375 71.207031 27.894531 69.34375 26.890625 67.339844 C 24.820312 63.210938 23.851562 58.820312 23.875 54.21875 C 23.890625 51.65625 24.347656 49.144531 24.894531 46.652344 C 24.949219 46.390625 25 46.128906 25.066406 45.789062 C 23.234375 46.445312 21.402344 46.933594 19.828125 48.011719 C 18.90625 48.644531 18.691406 49.636719 18.570312 50.652344 C 18.308594 52.828125 18.464844 54.996094 18.707031 57.160156 C 19.464844 63.976562 21.046875 70.625 22.984375 77.195312 C 23.042969 77.398438 23.101562 77.601562 23.140625 77.832031 C 23.121094 77.863281 23.125 77.855469 23.125 77.855469 Z M 23.125 77.855469 "/>
<path style=" stroke:none;fill-rule:nonzero;fill:rgb(0.784314%,0.784314%,0.784314%);fill-opacity:1;" d="M 23.117188 77.863281 C 23.136719 77.867188 23.160156 77.867188 23.179688 77.871094 C 23.183594 77.871094 23.179688 77.894531 23.183594 77.90625 C 23.164062 77.90625 23.144531 77.90625 23.125 77.882812 C 23.125 77.855469 23.121094 77.863281 23.117188 77.863281 Z M 23.117188 77.863281 "/>
<path style=" stroke:none;fill-rule:nonzero;fill:rgb(96.078432%,96.078432%,96.078432%);fill-opacity:1;" d="M 52.980469 46.984375 C 52.914062 46.988281 52.859375 46.972656 52.71875 46.933594 C 52.863281 46.914062 52.917969 46.90625 52.996094 46.90625 C 53.015625 46.933594 53.007812 46.945312 52.980469 46.984375 Z M 52.980469 46.984375 "/>
<path style=" stroke:none;fill-rule:nonzero;fill:rgb(96.078432%,96.078432%,96.078432%);fill-opacity:1;" d="M 14.355469 46.667969 C 14.375 46.667969 14.414062 46.691406 14.429688 46.726562 C 14.394531 46.722656 14.382812 46.710938 14.355469 46.667969 Z M 14.355469 46.667969 "/>
</g>
</svg>
